<svg width="1439" height="189" viewBox="0 0 1439 189" fill="none" xmlns="http://www.w3.org/2000/svg">
<path fill-rule="evenodd" clip-rule="evenodd" d="M-1 64.4929L12.2 82.4076C25.4 100.322 51.8 136.152 79.4 136.152C105.8 136.152 132.2 100.322 158.6 78.8246C186.2 57.327 212.6 50.1611 239 71.6588C265.4 93.1564 291.8 143.318 319.4 143.318C345.8 143.318 372.2 93.1564 398.6 71.6588C426.2 50.1611 452.6 57.327 479 78.8246C505.4 100.322 531.8 136.152 559.4 132.569C585.8 128.986 612.2 85.9905 638.6 85.9905C666.2 85.9905 692.6 128.986 719 128.986C745.4 128.986 771.8 85.9905 799.4 78.8246C825.8 71.6588 852.2 100.322 878.6 107.488C906.2 114.654 932.6 100.322 959 111.071C985.4 121.82 1011.8 157.649 1039.4 175.564C1065.8 193.479 1092.2 193.479 1118.6 175.564C1146.2 157.649 1172.6 121.82 1199 89.5735C1225.4 57.327 1251.8 28.6635 1279.4 32.2464C1305.8 35.8294 1332.2 71.6588 1358.6 75.2417C1386.2 78.8246 1412.6 50.1611 1425.8 35.8294L1439 21.4976V0H1425.8C1412.6 0 1386.2 0 1358.6 0C1332.2 0 1305.8 0 1279.4 0C1251.8 0 1225.4 0 1199 0C1172.6 0 1146.2 0 1118.6 0C1092.2 0 1065.8 0 1039.4 0C1011.8 0 985.4 0 959 0C932.6 0 906.2 0 878.6 0C852.2 0 825.8 0 799.4 0C771.8 0 745.4 0 719 0C692.6 0 666.2 0 638.6 0C612.2 0 585.8 0 559.4 0C531.8 0 505.4 0 479 0C452.6 0 426.2 0 398.6 0C372.2 0 345.8 0 319.4 0C291.8 0 265.4 0 239 0C212.6 0 186.2 0 158.6 0C132.2 0 105.8 0 79.4 0C51.8 0 25.4 0 12.2 0H-1V64.4929Z" fill="#C9B492"/>
</svg>
