<svg width="1440" height="189" viewBox="0 0 1440 189" fill="none" xmlns="http://www.w3.org/2000/svg">
<path fill-rule="evenodd" clip-rule="evenodd" d="M0 21.4412L13.2 46.4559C26.4 71.4706 52.8 121.5 80.4 139.368C106.8 157.235 133.2 142.941 159.6 146.515C187.2 150.088 213.6 171.529 240 164.382C266.4 157.235 292.8 121.5 320.4 100.059C346.8 78.6176 373.2 71.4706 399.6 75.0441C427.2 78.6176 453.6 92.9118 480 107.206C506.4 121.5 532.8 135.794 560.4 132.221C586.8 128.647 613.2 107.206 639.6 92.9118C667.2 78.6176 693.6 71.4706 720 89.3382C746.4 107.206 772.8 150.088 800.4 150.088C826.8 150.088 853.2 107.206 879.6 96.4853C907.2 85.7647 933.6 107.206 960 103.632C986.4 100.059 1012.8 71.4706 1040.4 78.6176C1066.8 85.7647 1093.2 128.647 1119.6 157.235C1147.2 185.824 1173.6 200.118 1200 178.676C1226.4 157.235 1252.8 100.059 1280.4 92.9118C1306.8 85.7647 1333.2 128.647 1359.6 125.074C1387.2 121.5 1413.6 71.4706 1426.8 46.4559L1440 21.4412V0H1426.8C1413.6 0 1387.2 0 1359.6 0C1333.2 0 1306.8 0 1280.4 0C1252.8 0 1226.4 0 1200 0C1173.6 0 1147.2 0 1119.6 0C1093.2 0 1066.8 0 1040.4 0C1012.8 0 986.4 0 960 0C933.6 0 907.2 0 879.6 0C853.2 0 826.8 0 800.4 0C772.8 0 746.4 0 720 0C693.6 0 667.2 0 639.6 0C613.2 0 586.8 0 560.4 0C532.8 0 506.4 0 480 0C453.6 0 427.2 0 399.6 0C373.2 0 346.8 0 320.4 0C292.8 0 266.4 0 240 0C213.6 0 187.2 0 159.6 0C133.2 0 106.8 0 80.4 0C52.8 0 26.4 0 13.2 0H0V21.4412Z" fill="#4A4634"/>
</svg>
