<svg width="75" height="75" viewBox="0 0 75 75" fill="none" xmlns="http://www.w3.org/2000/svg">
<circle cx="37.5" cy="37.5" r="37" stroke="#423706"/>
<g clip-path="url(#clip0_329_5275)">
<path d="M37.0912 15.8828C33.662 15.8828 30.8828 18.662 30.8828 22.0912C30.8828 25.5911 32.6175 26.3367 34.5348 28.6648C36.8281 31.4496 37.0912 34.3254 37.0912 34.3254C37.0912 34.3254 37.3543 31.4496 39.6476 28.6648C41.5649 26.3367 43.2996 25.5911 43.2996 22.0912C43.2996 18.662 40.5205 15.8828 37.0912 15.8828ZM37.0912 24.2368C35.9062 24.2368 34.9457 23.2762 34.9457 22.0912C34.9457 20.9063 35.9063 19.9457 37.0912 19.9457C38.2761 19.9457 39.2367 20.9063 39.2367 22.0912C39.2367 23.2762 38.2761 24.2368 37.0912 24.2368Z" fill="#423706"/>
</g>
<path d="M24.2802 54.2243C24.0968 53.9677 23.8768 53.6963 23.6202 53.4103C23.3635 53.117 23.0885 52.831 22.7952 52.5523C22.5018 52.2737 22.2048 52.017 21.9042 51.7823C21.6035 51.5477 21.3212 51.3497 21.0572 51.1883L21.9922 50.2973C22.2048 50.4293 22.4285 50.5797 22.6632 50.7483C22.8978 50.9097 23.1288 51.082 23.3562 51.2653C23.5762 51.0747 23.8145 50.8583 24.0712 50.6163C24.3352 50.3743 24.5955 50.125 24.8522 49.8683C25.1088 49.6117 25.3472 49.366 25.5672 49.1313C25.1492 49.146 24.6798 49.1643 24.1592 49.1863C23.6458 49.201 23.1178 49.2193 22.5752 49.2413C22.0398 49.256 21.5265 49.2743 21.0352 49.2963C20.5512 49.3183 20.1222 49.3403 19.7482 49.3623C19.3815 49.377 19.1138 49.3917 18.9452 49.4063L18.8462 48.0203C19.0955 48.035 19.4328 48.0423 19.8582 48.0423C20.2908 48.0423 20.7712 48.0423 21.2992 48.0423C21.8345 48.035 22.3808 48.024 22.9382 48.0093C23.5028 47.9947 24.0418 47.98 24.5552 47.9653C25.0758 47.9507 25.5378 47.9323 25.9412 47.9103C26.3518 47.8883 26.6635 47.8663 26.8762 47.8443L27.6792 48.5813C27.5032 48.8233 27.2832 49.0947 27.0192 49.3953C26.7625 49.696 26.4802 50.0077 26.1722 50.3303C25.8715 50.653 25.5598 50.9683 25.2372 51.2763C24.9218 51.5843 24.6212 51.863 24.3352 52.1123C24.5332 52.303 24.7202 52.4937 24.8962 52.6843C25.0795 52.875 25.2408 53.062 25.3802 53.2453C25.2848 53.3113 25.1675 53.403 25.0282 53.5203C24.8888 53.6377 24.7495 53.7587 24.6102 53.8833C24.4782 54.008 24.3682 54.1217 24.2802 54.2243ZM35.0492 54.9833C34.9905 54.8293 34.9025 54.6533 34.7852 54.4553C34.6678 54.25 34.5542 54.0923 34.4442 53.9823C35.7128 53.6817 36.7358 53.1463 37.5132 52.3763C38.2978 51.6063 38.7818 50.5613 38.9652 49.2413L40.0322 49.4173C39.8708 50.4807 39.5628 51.3753 39.1082 52.1013C38.6608 52.8273 38.0925 53.4213 37.4032 53.8833C36.7212 54.338 35.9365 54.7047 35.0492 54.9833ZM34.3672 51.6063C34.3452 51.4597 34.2975 51.2727 34.2242 51.0453C34.1508 50.818 34.0665 50.5943 33.9712 50.3743C33.8832 50.1543 33.8025 49.9857 33.7292 49.8683L34.7302 49.5053C34.8035 49.63 34.8842 49.806 34.9722 50.0333C35.0602 50.2607 35.1408 50.4917 35.2142 50.7263C35.2948 50.9537 35.3535 51.148 35.3902 51.3093L34.3672 51.6063ZM36.2482 51.1883C36.2335 51.0417 36.1932 50.8547 36.1272 50.6273C36.0612 50.3927 35.9878 50.1653 35.9072 49.9453C35.8265 49.718 35.7495 49.5457 35.6762 49.4283L36.6772 49.0983C36.7432 49.2303 36.8165 49.41 36.8972 49.6373C36.9852 49.8647 37.0622 50.0957 37.1282 50.3303C37.2015 50.5577 37.2528 50.752 37.2822 50.9133L36.2482 51.1883ZM48.1062 54.8513C48.0622 54.756 47.9888 54.6313 47.8862 54.4773C47.7908 54.3233 47.6845 54.1693 47.5672 54.0153C47.4572 53.8613 47.3508 53.7403 47.2482 53.6523C48.6488 53.1977 49.8038 52.567 50.7132 51.7603C51.6225 50.9463 52.2788 49.9123 52.6822 48.6583C52.3375 48.6657 51.9452 48.6767 51.5052 48.6913C51.0725 48.706 50.6252 48.7207 50.1632 48.7353C49.7012 48.75 49.2575 48.7647 48.8322 48.7793C48.4142 48.794 48.0475 48.8087 47.7322 48.8233C47.4168 48.8307 47.1858 48.838 47.0392 48.8453L46.9512 47.3713C47.1638 47.386 47.4425 47.397 47.7872 47.4043C48.1392 47.4117 48.5242 47.4153 48.9422 47.4153C49.3602 47.4153 49.7928 47.4153 50.2402 47.4153C50.6875 47.408 51.1165 47.4007 51.5272 47.3933C51.9452 47.3787 52.3228 47.364 52.6602 47.3493C52.9975 47.3347 53.2652 47.3163 53.4632 47.2943L54.3542 47.7673C54.1122 48.9407 53.7015 49.993 53.1222 50.9243C52.5502 51.8483 51.8388 52.644 50.9882 53.3113C50.1448 53.9713 49.1842 54.4847 48.1062 54.8513ZM55.1132 47.7343C54.8125 47.7343 54.5522 47.628 54.3322 47.4153C54.1195 47.1953 54.0132 46.935 54.0132 46.6343C54.0132 46.3337 54.1195 46.077 54.3322 45.8643C54.5522 45.6517 54.8125 45.5453 55.1132 45.5453C55.4138 45.5453 55.6705 45.6517 55.8832 45.8643C56.0958 46.077 56.2022 46.3337 56.2022 46.6343C56.2022 46.935 56.0958 47.1953 55.8832 47.4153C55.6705 47.628 55.4138 47.7343 55.1132 47.7343ZM55.1132 47.2613C55.2818 47.2613 55.4248 47.2027 55.5422 47.0853C55.6668 46.9607 55.7292 46.8103 55.7292 46.6343C55.7292 46.4657 55.6668 46.3227 55.5422 46.2053C55.4248 46.0807 55.2818 46.0183 55.1132 46.0183C54.9372 46.0183 54.7868 46.0807 54.6622 46.2053C54.5448 46.3227 54.4862 46.4657 54.4862 46.6343C54.4862 46.8103 54.5448 46.9607 54.6622 47.0853C54.7868 47.2027 54.9372 47.2613 55.1132 47.2613Z" fill="#423706"/>
<defs>
<clipPath id="clip0_329_5275">
<rect width="18.4426" height="18.4426" fill="white" transform="translate(28.2773 15.9839)"/>
</clipPath>
</defs>
</svg>
