<svg width="75" height="75" viewBox="0 0 75 75" fill="none" xmlns="http://www.w3.org/2000/svg">
<circle cx="37.5" cy="37.5" r="37" stroke="#423706"/>
<path d="M22.456 43.803V41.251H20.234V40.107H22.456V38.941H20.63V37.874H22.456V36.752H20.421V35.674H21.543C21.4477 35.4393 21.3267 35.1827 21.18 34.904C21.0407 34.6253 20.894 34.3723 20.74 34.145L21.829 33.694C21.9757 33.8993 22.1333 34.1597 22.302 34.475C22.4707 34.7903 22.61 35.091 22.72 35.377C22.6173 35.4137 22.4927 35.4577 22.346 35.509C22.2067 35.5603 22.0673 35.6153 21.928 35.674H23.27C23.4167 35.4027 23.5707 35.08 23.732 34.706C23.9007 34.332 24.0363 33.991 24.139 33.683L25.349 34.068C25.2463 34.3247 25.1253 34.596 24.986 34.882C24.8467 35.168 24.7073 35.432 24.568 35.674H25.899V36.752H23.754V37.874H25.58V38.941H23.754V40.107H26.141V41.251H23.754V43.803H22.456ZM16.615 43.528V40.371H19.86V43.528H16.615ZM16.153 36.708V35.696H20.212V36.708H16.153ZM16.692 35.168V34.123H19.728V35.168H16.692ZM16.681 39.81V38.787H19.728V39.81H16.681ZM16.681 38.259V37.247H19.728V38.259H16.681ZM17.726 42.527H18.749V41.372H17.726V42.527ZM31.531 43.803V39.348C31.2377 39.3773 30.9553 39.4103 30.684 39.447C30.42 39.4763 30.1853 39.4983 29.98 39.513L29.826 38.38C29.914 38.38 30.013 38.38 30.123 38.38C30.2403 38.3727 30.3577 38.3653 30.475 38.358C30.739 38.0867 31.0397 37.7237 31.377 37.269C31.135 37.0783 30.8673 36.8803 30.574 36.675C30.2807 36.4623 29.9983 36.2753 29.727 36.114L30.343 35.19C30.409 35.2267 30.475 35.267 30.541 35.311C30.6143 35.355 30.6877 35.4027 30.761 35.454C30.8637 35.2853 30.97 35.0983 31.08 34.893C31.1973 34.6803 31.3037 34.475 31.399 34.277C31.5017 34.0717 31.5787 33.903 31.63 33.771L32.664 34.189C32.5027 34.4823 32.323 34.794 32.125 35.124C31.927 35.454 31.74 35.7473 31.564 36.004C31.652 36.0627 31.7327 36.1213 31.806 36.18C31.8867 36.2387 31.96 36.2937 32.026 36.345C32.2387 36.0443 32.4293 35.7547 32.598 35.476C32.774 35.1973 32.9097 34.9663 33.005 34.783L33.995 35.311C33.841 35.575 33.643 35.883 33.401 36.235C33.1663 36.5797 32.917 36.9317 32.653 37.291C32.389 37.643 32.1323 37.9693 31.883 38.27C32.081 38.2553 32.2753 38.2407 32.466 38.226C32.664 38.2113 32.8473 38.1967 33.016 38.182C32.9647 38.0647 32.9097 37.9547 32.851 37.852C32.7997 37.7493 32.7447 37.6577 32.686 37.577L33.599 37.126C33.7237 37.3093 33.852 37.522 33.984 37.764C34.116 38.006 34.237 38.2443 34.347 38.479V34.376H39.605V43.396H34.347V41.845C34.193 41.889 34.0317 41.9477 33.863 42.021C33.7017 42.087 33.5587 42.1567 33.434 42.23C33.3753 42.0687 33.302 41.8487 33.214 41.57C33.1333 41.2913 33.0527 41.0053 32.972 40.712C32.8913 40.4113 32.829 40.1583 32.785 39.953L33.764 39.7C33.8007 39.854 33.852 40.041 33.918 40.261C33.984 40.481 34.0537 40.7083 34.127 40.943C34.2077 41.1703 34.281 41.3757 34.347 41.559V39.238C34.2297 39.2893 34.105 39.3517 33.973 39.425C33.841 39.491 33.7273 39.5533 33.632 39.612C33.61 39.5313 33.5807 39.447 33.544 39.359C33.5073 39.2637 33.4707 39.1683 33.434 39.073C33.324 39.0877 33.2067 39.106 33.082 39.128C32.9647 39.1427 32.84 39.161 32.708 39.183V43.803H31.531ZM30.662 42.725C30.5227 42.6663 30.3503 42.604 30.145 42.538C29.947 42.472 29.7747 42.4317 29.628 42.417C29.738 42.219 29.848 41.9697 29.958 41.669C30.068 41.3683 30.167 41.0567 30.255 40.734C30.343 40.4113 30.4053 40.118 30.442 39.854L31.443 40.063C31.4063 40.327 31.344 40.6277 31.256 40.965C31.1753 41.3023 31.0837 41.6287 30.981 41.944C30.8783 42.252 30.772 42.5123 30.662 42.725ZM37.515 42.23H38.428V39.304H37.515V42.23ZM35.535 42.23H36.415V39.304H35.535V42.23ZM37.515 38.16H38.428V35.531H37.515V38.16ZM35.535 38.16H36.415V35.531H35.535V38.16Z" fill="#423706"/>
<path d="M64.7071 38.7071C65.0976 38.3166 65.0976 37.6834 64.7071 37.2929L58.3431 30.9289C57.9526 30.5384 57.3195 30.5384 56.9289 30.9289C56.5384 31.3195 56.5384 31.9526 56.9289 32.3431L62.5858 38L56.9289 43.6569C56.5384 44.0474 56.5384 44.6805 56.9289 45.0711C57.3195 45.4616 57.9526 45.4616 58.3431 45.0711L64.7071 38.7071ZM48 39L64 39V37L48 37V39Z" fill="#423706"/>
</svg>
