<svg width="36" height="39" viewBox="0 0 36 39" fill="none" xmlns="http://www.w3.org/2000/svg">
<path d="M10.9378 0.0419668C10.7188 0.164128 10.582 0.422024 10.582 0.71046C10.582 0.947996 10.6367 1.07355 10.8858 1.41628C11.351 2.05084 11.6986 2.7363 11.8108 3.2487C11.9175 3.72038 11.8737 4.25653 11.6986 4.69088C11.57 5.00646 11.3264 5.41706 10.8447 6.13306C10.062 7.29359 9.78287 7.81956 9.58583 8.50163C9.38331 9.20066 9.38331 10.032 9.58309 10.7989C9.74456 11.4199 10.1113 12.2004 10.5546 12.8621C10.8228 13.2659 10.9296 13.3406 11.1978 13.3202C11.3948 13.3066 11.5207 13.2082 11.6411 12.9843C11.6986 12.8757 11.715 12.8044 11.715 12.6381C11.7177 12.3904 11.6904 12.3226 11.4167 11.9018C10.7845 10.9313 10.5081 10.0524 10.6066 9.33979C10.6942 8.72899 10.9241 8.25392 11.6822 7.13071C12.2788 6.24165 12.4703 5.91928 12.6564 5.48832C12.9274 4.85715 13.0286 4.39905 13.0259 3.79164C13.0259 3.1978 12.9383 2.74309 12.7002 2.13567C12.4484 1.48754 11.7342 0.330403 11.4523 0.116621C11.2963 -0.00214698 11.0773 -0.0360807 10.9378 0.0419668Z" fill="#423706"/>
<path d="M13.8821 0.197986C13.6385 0.265854 13.4497 0.57465 13.4552 0.893627C13.4552 1.13456 13.5017 1.23296 13.7973 1.64695C14.2433 2.27812 14.5143 2.8007 14.6539 3.29952C14.7223 3.53706 14.7305 3.6185 14.7305 3.9782C14.7277 4.35825 14.7223 4.40576 14.6402 4.66026C14.5115 5.05729 14.2406 5.54254 13.7124 6.32301C13.0419 7.31048 12.8531 7.63625 12.6396 8.16222C12.1005 9.49581 12.21 10.8192 12.9845 12.2919C13.2745 12.8451 13.6166 13.3507 13.7589 13.4457C14.0655 13.6459 14.4705 13.4185 14.569 12.9944C14.6347 12.7127 14.5936 12.56 14.3446 12.1698C14.0846 11.7626 13.8356 11.3079 13.7179 11.0228C13.5072 10.5036 13.4169 9.90641 13.4825 9.48563C13.5783 8.88161 13.8109 8.41333 14.5718 7.28334C14.8536 6.86256 15.1656 6.3807 15.2614 6.21443C15.4721 5.84794 15.7349 5.18963 15.8088 4.84351C16.0742 3.62529 15.7896 2.41725 14.9221 1.07687C14.5772 0.540716 14.3473 0.269247 14.1886 0.21156C14.0354 0.153873 14.0381 0.153873 13.8821 0.197986Z" fill="#423706"/>
<path d="M17.0507 0.191301C16.8208 0.262561 16.6429 0.500097 16.6128 0.781747C16.5827 1.03625 16.6402 1.20931 16.8345 1.47739C17.6583 2.61077 17.9839 3.45233 17.8882 4.20565C17.8197 4.76895 17.5844 5.26438 16.9276 6.23149C16.0764 7.48704 15.8438 7.9146 15.6358 8.61364C15.5017 9.06835 15.4662 9.33303 15.4689 9.88276C15.4744 10.4291 15.5346 10.7786 15.7207 11.3351C15.9752 12.0918 16.6375 13.2592 16.9111 13.4356C17.2669 13.6664 17.7021 13.3711 17.7431 12.8757C17.7623 12.6382 17.7048 12.4787 17.4585 12.1054C16.7278 10.9856 16.4733 10.0219 16.6949 9.21087C16.8455 8.66114 17.0206 8.33199 17.7157 7.3004C17.9922 6.88981 18.2987 6.41474 18.3945 6.24846C19.4508 4.41944 19.2565 2.67864 17.7677 0.625652C17.4941 0.245595 17.2861 0.12004 17.0507 0.191301Z" fill="#423706"/>
<path d="M3.75642 13.1719C3.51012 13.2669 3.32949 13.4638 3.21729 13.7522L3.14066 13.9558V14.9399C3.14066 18.8762 3.54843 22.463 4.30377 25.2048C4.75806 26.8506 5.41762 28.5032 6.16474 29.8571L6.42473 30.3288H4.04378C1.59715 30.3288 1.48768 30.3356 1.27968 30.4645C1.13464 30.5562 0.978645 30.7631 0.89928 30.9735C0.841809 31.1228 0.828125 31.2111 0.828125 31.4147C0.828125 31.7913 0.902017 31.961 1.28516 32.4564C1.45484 32.677 1.84892 33.2166 2.15817 33.6543C2.46742 34.092 2.86972 34.6384 3.05308 34.8657C4.4105 36.5624 5.95675 37.3599 9.05199 37.9537L9.72249 38.0826L15.4915 38.0928L21.2605 38.0996L21.786 37.9978C23.8139 37.5974 25.1932 37.1223 26.2605 36.4572C27.2321 35.8532 27.7958 35.2865 28.9152 33.7968C29.301 33.2776 29.7717 32.6566 29.9633 32.4157C30.3601 31.9067 30.4121 31.7846 30.4094 31.3977C30.4094 31.228 30.3902 31.1093 30.3465 30.9837C30.2726 30.7733 30.0673 30.5256 29.884 30.4204L29.7553 30.3458L27.2184 30.3356L24.6787 30.3254L24.8265 30.0811C25.3957 29.1242 26.0361 27.7634 26.3919 26.7488C26.5342 26.3382 26.5424 26.3246 26.5588 26.3823C26.5889 26.4807 26.8544 26.9965 26.9994 27.234C27.2074 27.57 27.5878 28.0349 27.867 28.2928C27.9874 28.4048 28.2474 28.5948 28.4417 28.7169C29.0164 29.0699 29.4981 29.209 30.1713 29.209C31.9283 29.209 33.6333 27.8482 34.7416 25.5611C35.2753 24.4583 35.6037 23.3215 35.7679 21.9981C35.8144 21.6214 35.8254 21.3635 35.8281 20.7425C35.8281 19.8772 35.7925 19.4734 35.653 18.7642C35.2835 16.8877 34.312 15.381 33.064 14.7498C31.4931 13.9558 29.5911 14.5293 28.1872 16.226L27.9874 16.4669L27.9956 15.2113L28.0038 13.9558L27.9327 13.7658C27.8424 13.5316 27.6918 13.345 27.4975 13.2296L27.347 13.1414L15.6064 13.1346C6.22495 13.1312 3.844 13.138 3.75642 13.1719ZM32.2184 16.6535C33.1023 16.9963 33.7701 18.0584 34.0137 19.5141C34.0876 19.9553 34.1149 20.9563 34.0684 21.4755C33.948 22.7853 33.5265 24.0918 32.8916 25.12C32.6836 25.4627 32.2594 25.9785 31.9775 26.2432C31.6491 26.552 31.1921 26.8336 30.8227 26.9592C30.5873 27.0372 30.4942 27.0508 30.1658 27.0508C29.7389 27.0542 29.5419 26.9999 29.1943 26.7827C28.324 26.2398 27.7411 24.93 27.6645 23.3419C27.5824 21.6146 27.9929 19.9281 28.8303 18.547C29.4625 17.5087 30.2698 16.8198 31.11 16.5992C31.3837 16.528 31.9748 16.5585 32.2184 16.6535Z" fill="#423706"/>
</svg>
