<svg width="36" height="39" viewBox="0 0 36 39" fill="none" xmlns="http://www.w3.org/2000/svg">
<path d="M12.1616 5.11837L12.1623 5.11664C12.3757 4.58735 12.4273 3.94815 12.2988 3.37881C12.1657 2.77268 11.7759 2.02369 11.2897 1.3603C11.1661 1.19015 11.1203 1.11262 11.0996 1.0647C11.0885 1.03901 11.082 1.01938 11.082 0.949229C11.082 0.851374 11.1139 0.786572 11.1445 0.749893C11.1464 0.75106 11.148 0.752189 11.1494 0.75321L11.1501 0.753778C11.1494 0.753184 11.1494 0.753272 11.1504 0.754177C11.1542 0.757615 11.1708 0.772847 11.2013 0.807406C11.2365 0.847351 11.2796 0.90111 11.3295 0.968243C11.4292 1.10236 11.5447 1.27476 11.6622 1.46483C11.9002 1.85017 12.1241 2.2721 12.2342 2.5555L12.2347 2.55692C12.4517 3.1104 12.5259 3.50338 12.5259 4.03041V4.03266C12.5283 4.56179 12.445 4.95207 12.1972 5.52945C12.031 5.91408 11.8625 6.20344 11.2674 7.09028C10.5056 8.219 10.2167 8.77547 10.1117 9.5076L10.1113 9.51009C9.98893 10.3954 10.337 11.399 10.9977 12.4134L12.1616 5.11837ZM12.1616 5.11837C12.0111 5.48751 11.7398 5.93712 11.2596 6.65092L11.2593 6.65141M12.1616 5.11837L11.2593 6.65141M11.2593 6.65141C10.4833 7.80196 10.2407 8.27493 10.0662 8.87917L10.0661 8.87953M11.2593 6.65141L10.0661 8.87953M10.0661 8.87953C9.89099 9.48387 9.88759 10.2232 10.0669 10.9117L10.067 10.9119M10.0661 8.87953L10.067 10.9119M10.067 10.9119C10.2115 11.4677 10.551 12.1971 10.97 12.8226L10.97 12.8226M10.067 10.9119L10.97 12.8226M10.97 12.8226L10.9711 12.8242M10.97 12.8226L10.9711 12.8242M10.9711 12.8242C11.0351 12.9206 11.0814 12.9848 11.1176 13.0291C11.1289 13.043 11.1382 13.0535 11.1455 13.0614M10.9711 12.8242L11.1455 13.0614M11.1543 13.0608C11.1647 13.0474 11.18 13.0246 11.1999 12.9878C11.2072 12.9739 11.2102 12.9671 11.2111 12.9647C11.212 12.9597 11.215 12.9381 11.215 12.8769H11.215L11.215 12.8714C11.216 12.7831 11.2114 12.773 11.2074 12.7643C11.2069 12.7633 11.2065 12.7623 11.2061 12.7613C11.187 12.7143 11.1416 12.6347 10.9977 12.4135L11.1543 13.0608ZM11.1543 13.0608C11.1511 13.061 11.1482 13.0612 11.1455 13.0614M11.1543 13.0608L11.1455 13.0614M11.1818 0.717141L11.1814 0.717366L11.1818 0.717141ZM10.6066 9.57856L10.6066 9.57856L10.6066 9.57856Z" stroke="#423706"/>
<path d="M13.9552 1.12406L13.9551 1.12406C13.954 1.06237 13.9729 0.998697 14.0015 0.951979C14.0066 0.94372 14.0113 0.937019 14.0154 0.931627C14.0341 0.949276 14.0634 0.979094 14.1041 1.02706C14.2036 1.14451 14.3336 1.32519 14.5015 1.58635L14.5023 1.58756C15.3188 2.8491 15.5499 3.92197 15.3202 4.97606L15.3198 4.97813C15.2586 5.26466 15.0177 5.87422 14.8281 6.20403C14.742 6.3533 14.44 6.82063 14.1567 7.24358C13.3939 8.37658 13.1032 8.92436 12.9887 9.64633L12.9885 9.64753C12.9053 10.1809 13.0198 10.8713 13.2546 11.4499L13.2557 11.4526L13.2557 11.4526C13.3893 11.7761 13.6555 12.2587 13.9231 12.6778L13.9552 1.12406ZM13.9552 1.12406V1.13264M13.9552 1.12406V1.13264M13.9552 1.13264C13.9552 1.17792 13.9575 1.19623 13.9591 1.20465C13.96 1.20983 13.9617 1.21799 13.9703 1.23686C13.9954 1.29201 14.0512 1.38119 14.2042 1.59544L14.2056 1.59739M13.9552 1.13264L14.2056 1.59739M14.2056 1.59739C14.6695 2.2538 14.9741 2.82857 15.1348 3.40194C15.1717 3.53002 15.1996 3.64079 15.2147 3.7766C15.2289 3.90321 15.2305 4.04014 15.2305 4.21721L15.2305 4.22081M14.2056 1.59739L15.2305 4.22081M15.2305 4.22081C15.2292 4.40282 15.2276 4.54262 15.2108 4.67041C15.1925 4.81038 15.1578 4.92329 15.116 5.05279L15.1158 5.05338M15.2305 4.22081L15.1158 5.05338M15.1158 5.05338C14.9635 5.52346 14.6563 6.05935 14.1265 6.84226L14.1261 6.8429M15.1158 5.05338L14.1261 6.8429M14.1261 6.8429C13.4593 7.82491 13.2956 8.11461 13.103 8.58903C12.628 9.76441 12.7093 10.9335 13.427 12.2982L13.4272 12.2987M14.1261 6.8429L13.4272 12.2987M13.4272 12.2987C13.5646 12.5607 13.7135 12.8096 13.8419 13.0005C13.9064 13.0963 13.9623 13.1723 14.0061 13.2261C14.0106 13.2315 14.0147 13.2365 14.0185 13.2411C14.0398 13.2209 14.0674 13.1829 14.082 13.1203L14.0821 13.1198M13.4272 12.2987L14.0821 13.1198M14.0821 13.1198C14.1028 13.0311 14.0971 13.0102 14.0927 12.9943M14.0821 13.1198L14.0927 12.9943M14.0927 12.9943C14.0926 12.9938 14.0924 12.9933 14.0923 12.9929M14.0927 12.9943L14.0923 12.9929M14.0923 12.9929C14.0807 12.9502 14.0457 12.8698 13.9232 12.6779L14.0923 12.9929ZM13.7973 1.88597L13.7973 1.88593L13.7973 1.88597Z" stroke="#423706"/>
<path d="M17.11 1.07366L17.11 1.07366L17.1094 1.07925C17.1009 1.15106 17.107 1.18363 17.1156 1.21028C17.1272 1.24651 17.1558 1.30732 17.239 1.42219C18.0803 2.57978 18.5046 3.55576 18.3843 4.5061C18.3003 5.19515 18.0043 5.77478 17.3413 6.75105C16.495 7.99951 16.2999 8.37388 16.1153 8.99439C15.9969 9.39567 15.9664 9.6112 15.9689 10.1178C15.9739 10.6076 16.0243 10.9053 16.1947 11.4149C16.3085 11.7531 16.5218 12.2038 16.7437 12.5951C16.8538 12.7893 16.9607 12.9595 17.0521 13.0871C17.1158 13.1762 17.1572 13.2232 17.1758 13.2438C17.1988 13.2224 17.2367 13.1701 17.2448 13.0737C17.2494 13.0164 17.2452 12.9912 17.2311 12.9529C17.2095 12.8941 17.1611 12.8013 17.0412 12.6196L17.0412 12.6196L17.0398 12.6174C16.2764 11.4475 15.9358 10.3305 16.2126 9.31781L16.2127 9.3176C16.3864 8.68335 16.6025 8.2965 17.301 7.25995C17.5779 6.8486 17.8752 6.38688 17.9612 6.23765L17.9615 6.23716C18.4458 5.39862 18.6275 4.61221 18.5386 3.81522C18.4487 3.0088 18.0762 2.14143 17.363 1.15795L17.362 1.1566C17.3027 1.07432 17.2535 1.01496 17.213 0.972822C17.1957 0.954856 17.1812 0.941236 17.1693 0.931014C17.1658 0.934944 17.162 0.939501 17.1581 0.944776C17.1352 0.975472 17.1157 1.02031 17.11 1.07366Z" stroke="#423706"/>
<path d="M6.60263 29.8545L6.60252 29.8543C5.8764 28.5385 5.23086 26.923 4.78581 25.3108C4.04592 22.625 3.64066 19.0857 3.64066 15.1786V14.2855L3.68419 14.1699C3.74309 14.0196 3.81481 13.9423 3.88763 13.9004C3.89833 13.8999 3.9106 13.8994 3.92461 13.8989C4.01042 13.8957 4.14256 13.8927 4.33267 13.89C4.71184 13.8847 5.30848 13.8808 6.19776 13.878C7.97559 13.8725 10.9153 13.8717 15.6062 13.8734C15.6062 13.8734 15.6062 13.8734 15.6063 13.8734L27.2111 13.8801L27.2423 13.8983C27.2426 13.8985 27.2429 13.8987 27.2432 13.8989C27.3282 13.9496 27.4103 14.0407 27.4654 14.1825C27.4656 14.1831 27.4659 14.1838 27.4662 14.1845L27.5032 14.2835L27.4956 15.4468L27.4874 16.7024L27.4783 18.103L28.3723 17.0248L28.5721 16.7839L28.5724 16.7835C29.8778 15.2059 31.539 14.7781 32.8384 15.4348C33.9027 15.9731 34.811 17.3148 35.1624 19.0996C35.2945 19.771 35.3281 20.1418 35.3281 20.98C35.3254 21.5933 35.3146 21.8282 35.2717 22.1756C35.1137 23.4489 34.7996 24.5322 34.2917 25.5818C33.2244 27.7843 31.6554 28.9478 30.1713 28.9478C29.5932 28.9478 29.2021 28.8355 28.7057 28.5311C28.5251 28.4173 28.2955 28.2473 28.2075 28.1654L28.2063 28.1643C27.9623 27.9389 27.6111 27.5104 27.4254 27.211C27.3621 27.1072 27.2663 26.9319 27.1803 26.7654C27.1378 26.683 27.0998 26.6069 27.0714 26.5473C27.0446 26.491 27.0355 26.4683 27.0351 26.4684C27.0296 26.4506 27.0193 26.42 27.0041 26.3882C26.9928 26.3645 26.9654 26.3107 26.9138 26.2558C26.859 26.1975 26.7499 26.111 26.5857 26.0979C26.4239 26.0849 26.3046 26.1511 26.2438 26.1961C26.185 26.2397 26.1487 26.2863 26.1321 26.3091C26.0983 26.3555 26.0772 26.4004 26.0685 26.4194C26.0335 26.4954 25.9856 26.6329 25.9198 26.8229M6.60263 29.8545L26.3653 27.0625C26.2806 27.0293 26.2206 26.9784 26.1852 26.9408C26.174 26.9288 26.164 26.9169 26.1551 26.9055M6.60263 29.8545L6.86262 30.3262L7.27126 31.0676H6.42473H4.04378C2.81309 31.0676 2.19044 31.0694 1.84701 31.0865C1.67417 31.095 1.60298 31.1064 1.57261 31.1137C1.57108 31.1141 1.56995 31.1143 1.56899 31.1145C1.56472 31.1153 1.56389 31.1154 1.54636 31.1263C1.54551 31.1269 1.54331 31.1284 1.53985 31.1312C1.53495 31.1352 1.52837 31.141 1.52039 31.1488C1.50415 31.1647 1.48507 31.1863 1.46501 31.2131C1.42381 31.2681 1.38879 31.3313 1.3671 31.3888L1.36711 31.3888L1.36591 31.3919C1.34502 31.4462 1.33922 31.4706 1.33585 31.4916C1.33159 31.5182 1.32812 31.5597 1.32812 31.6534C1.32812 31.8022 1.34207 31.8633 1.37091 31.9291C1.40994 32.0181 1.48882 32.1412 1.68068 32.3893L1.68146 32.3903C1.85713 32.6187 2.25567 33.1645 2.56655 33.6046C2.87469 34.0408 3.26942 34.5763 3.44228 34.7906L3.44351 34.7921C4.08385 35.5925 4.75663 36.1679 5.62976 36.6175C6.51229 37.072 7.61994 37.4086 9.1462 37.7014L9.14642 37.7015L9.77057 37.8215L6.60263 29.8545ZM25.9198 26.8229C25.9197 26.8232 25.9196 26.8235 25.9195 26.8238L26.1315 26.8973C26.1444 26.9263 26.1575 26.954 26.1686 26.9773C26.2029 27.0494 26.246 27.1356 26.2918 27.2242C26.2945 27.2295 26.2973 27.2349 26.3001 27.2403C25.9672 28.1284 25.4566 29.2148 24.9742 30.0654L24.6807 30.0642L24.68 30.2313L24.3987 30.0611L24.3978 30.0625C24.9505 29.1331 25.5757 27.8039 25.9198 26.8229ZM25.9198 26.8229C25.9199 26.8226 25.92 26.8224 25.9201 26.8221L26.1309 26.8961M26.1309 26.8961C26.1117 26.853 26.0928 26.8069 26.0807 26.7673L26.0806 26.7674L26.0779 26.758L26.0788 26.761L26.0808 26.7673L26.0818 26.7703C26.0841 26.777 26.0904 26.7954 26.1015 26.8187C26.1085 26.8334 26.1249 26.8662 26.1541 26.9042M26.1309 26.8961L26.1541 26.9042M26.1309 26.8961L26.1551 26.9055M26.1541 26.9042L26.3919 26.9876L26.1551 26.9055M26.1541 26.9042C26.1544 26.9046 26.1548 26.9051 26.1551 26.9055M30.3465 31.2225C30.2726 31.0121 30.0673 30.7644 29.884 30.6592M30.3465 31.2225C30.3902 31.348 30.4094 31.4668 30.4094 31.6365C30.4121 32.0233 30.3601 32.1455 29.9633 32.6545L29.884 30.6592M30.3465 31.2225L29.8747 31.3882C29.8747 31.388 29.8746 31.3879 29.8745 31.3877C29.8745 31.3875 29.8744 31.3873 29.8743 31.3871L30.3465 31.2225ZM29.884 30.6592L29.7553 30.5845M29.884 30.6592L29.7553 30.5845M29.7553 30.5845L27.2184 30.5744L25.2615 30.5665M29.7553 30.5845L25.2615 30.5665M25.2615 30.5665C25.2598 30.5695 25.258 30.5725 25.2562 30.5755L25.2543 30.5786L25.1065 30.823L24.6787 30.5642L24.68 30.2327L24.3968 30.0642L25.2615 30.5665ZM34.5663 21.76L34.5664 21.7589C34.6161 21.2047 34.5889 20.1603 34.5068 19.6704C34.5068 19.6704 34.5068 19.6703 34.5068 19.6703L34.0137 19.7529C33.7701 18.2972 33.1023 17.235 32.2184 16.8923C31.9748 16.7973 31.3837 16.7667 31.11 16.838L34.5663 21.76ZM34.5663 21.76C34.4395 23.139 33.9966 24.5203 33.3181 25.6198L34.5663 21.76ZM30.1677 27.7896C29.9358 27.7913 29.7275 27.7782 29.5173 27.7202C29.3052 27.6617 29.1224 27.5662 28.9296 27.4457C27.8564 26.7762 27.2451 25.2635 27.165 23.6047L27.165 23.6044C27.0786 21.785 27.5101 19.9987 28.4028 18.5266L28.4032 18.5258C29.0758 17.421 29.9752 16.619 30.983 16.3544L30.984 16.3541C31.1949 16.2992 31.4714 16.292 31.7004 16.3034C31.926 16.3147 32.2001 16.3487 32.3991 16.4261L32.3198 26.8465C31.9461 27.1978 31.4287 27.5201 30.9835 27.6714L30.98 27.6725C30.8521 27.715 30.7367 27.7488 30.5986 27.7682C30.4679 27.7865 30.3326 27.7896 30.1677 27.7896ZM30.1677 27.7896C30.1684 27.7896 30.1691 27.7896 30.1698 27.7896L30.1658 27.2897V27.7896C30.1665 27.7896 30.1671 27.7896 30.1677 27.7896ZM26.7626 27.046C26.7775 27.0745 26.7927 27.1032 26.8079 27.1317C26.8082 27.1324 26.8086 27.1331 26.809 27.1338C26.8214 27.157 26.8338 27.1801 26.8461 27.2029C26.8521 27.1862 26.8579 27.1696 26.8637 27.153L26.8643 27.1513C26.9 27.0484 26.9261 26.9736 26.9458 26.9192C26.9557 26.8921 26.9631 26.872 26.9689 26.8573C26.9743 26.8432 26.9768 26.8378 26.9768 26.8378L26.9767 26.838C26.9763 26.8389 26.9738 26.8443 26.9692 26.8526C26.9653 26.8599 26.9557 26.8768 26.9405 26.8978C26.9277 26.9154 26.8948 26.9583 26.8392 26.9995C26.82 27.0138 26.7943 27.0305 26.7626 27.046ZM26.2605 36.696C27.2321 36.092 27.7958 35.5253 28.9152 34.0356L26.2605 36.696Z" stroke="#423706"/>
</svg>
