<svg width="36" height="39" viewBox="0 0 36 39" fill="none" xmlns="http://www.w3.org/2000/svg">
<path d="M12.1616 4.8796L12.1623 4.87787C12.3757 4.34858 12.4273 3.70938 12.2988 3.14004C12.1657 2.53391 11.7759 1.78492 11.2897 1.12153C11.1661 0.951383 11.1203 0.873851 11.0996 0.825933C11.0885 0.800236 11.082 0.780614 11.082 0.71046C11.082 0.612604 11.1139 0.547803 11.1445 0.511124C11.1464 0.512291 11.148 0.513419 11.1494 0.514441L11.1501 0.515008C11.1494 0.514415 11.1494 0.514503 11.1504 0.515408C11.1542 0.518846 11.1708 0.534078 11.2013 0.568637C11.2365 0.608582 11.2796 0.66234 11.3295 0.729473C11.4292 0.863593 11.5447 1.03599 11.6622 1.22606C11.9002 1.6114 12.1241 2.03333 12.2342 2.31673L12.2347 2.31815C12.4517 2.87164 12.5259 3.26461 12.5259 3.79164V3.79389C12.5283 4.32302 12.445 4.7133 12.1972 5.29068C12.031 5.67532 11.8625 5.96467 11.2674 6.85151C10.5056 7.98023 10.2167 8.5367 10.1117 9.26883L10.1113 9.27132C9.98893 10.1567 10.337 11.1602 10.9977 12.1746L12.1616 4.8796ZM12.1616 4.8796C12.0111 5.24874 11.7398 5.69835 11.2596 6.41215L11.2593 6.41264M12.1616 4.8796L11.2593 6.41264M11.2593 6.41264C10.4833 7.56319 10.2407 8.03616 10.0662 8.6404L10.0661 8.64077M11.2593 6.41264L10.0661 8.64077M10.0661 8.64077C9.89099 9.2451 9.88759 9.98441 10.0669 10.6729L10.067 10.6731M10.0661 8.64077L10.067 10.6731M10.067 10.6731C10.2115 11.2289 10.551 11.9584 10.97 12.5838L10.97 12.5838M10.067 10.6731L10.97 12.5838M10.97 12.5838L10.9711 12.5855M10.97 12.5838L10.9711 12.5855M10.9711 12.5855C11.0351 12.6818 11.0814 12.7461 11.1176 12.7903C11.1289 12.8042 11.1382 12.8148 11.1455 12.8226M10.9711 12.5855L11.1455 12.8226M11.1543 12.8221C11.1647 12.8086 11.18 12.7859 11.1999 12.749C11.2072 12.7351 11.2102 12.7283 11.2111 12.7259C11.212 12.7209 11.215 12.6993 11.215 12.6381H11.215L11.215 12.6326C11.216 12.5443 11.2114 12.5342 11.2074 12.5255C11.2069 12.5245 11.2065 12.5236 11.2061 12.5225C11.187 12.4755 11.1416 12.3959 10.9977 12.1747L11.1543 12.8221ZM11.1543 12.8221C11.1511 12.8223 11.1482 12.8224 11.1455 12.8226M11.1543 12.8221L11.1455 12.8226M11.1818 0.478372L11.1814 0.478597L11.1818 0.478372ZM10.6066 9.33979L10.6066 9.33979L10.6066 9.33979Z" stroke="#F9F3EC"/>
<path d="M13.9552 0.885291L13.9551 0.885292C13.954 0.823598 13.9729 0.759928 14.0015 0.713209C14.0066 0.70495 14.0113 0.69825 14.0154 0.692858C14.0341 0.710506 14.0634 0.740324 14.1041 0.788286C14.2036 0.905736 14.3336 1.08642 14.5015 1.34758L14.5023 1.34879C15.3188 2.61033 15.5499 3.6832 15.3202 4.73729L15.3198 4.73936C15.2586 5.02589 15.0177 5.63545 14.8281 5.96526C14.742 6.11453 14.44 6.58186 14.1567 7.00481C13.3939 8.13781 13.1032 8.68559 12.9887 9.40757L12.9885 9.40876C12.9053 9.94211 13.0198 10.6326 13.2546 11.2111L13.2557 11.2139L13.2557 11.2139C13.3893 11.5373 13.6555 12.0199 13.9231 12.439L13.9552 0.885291ZM13.9552 0.885291V0.89387M13.9552 0.885291V0.89387M13.9552 0.89387C13.9552 0.939151 13.9575 0.957458 13.9591 0.965884C13.96 0.97106 13.9617 0.979223 13.9703 0.998088C13.9954 1.05324 14.0512 1.14242 14.2042 1.35667L14.2056 1.35862M13.9552 0.89387L14.2056 1.35862M14.2056 1.35862C14.6695 2.01504 14.9741 2.58982 15.1348 3.16321C15.1717 3.29127 15.1996 3.40203 15.2147 3.53783C15.2289 3.66444 15.2305 3.80137 15.2305 3.97844L15.2305 3.98204M14.2056 1.35862L15.2305 3.98204M15.2305 3.98204C15.2292 4.16405 15.2276 4.30385 15.2108 4.43164C15.1925 4.57161 15.1578 4.68452 15.116 4.81402L15.1158 4.81461M15.2305 3.98204L15.1158 4.81461M15.1158 4.81461C14.9635 5.28469 14.6563 5.82058 14.1265 6.60349L14.1261 6.60413M15.1158 4.81461L14.1261 6.60413M14.1261 6.60413C13.4594 7.58604 13.2956 7.87578 13.1031 8.35011C12.628 9.52554 12.7092 10.6947 13.427 12.0595L13.4272 12.06M14.1261 6.60413L13.4272 12.06M13.4272 12.06C13.5646 12.3219 13.7135 12.5708 13.8419 12.7617C13.9064 12.8575 13.9623 12.9336 14.0061 12.9873C14.0106 12.9928 14.0147 12.9977 14.0185 13.0023C14.0398 12.9821 14.0674 12.9442 14.082 12.8815L14.0821 12.8811M13.4272 12.06L14.0821 12.8811M14.0821 12.8811C14.1028 12.7923 14.0971 12.7714 14.0927 12.7555M14.0821 12.8811L14.0927 12.7555M14.0927 12.7555C14.0926 12.755 14.0924 12.7546 14.0923 12.7541M14.0927 12.7555L14.0923 12.7541M14.0923 12.7541C14.0807 12.7114 14.0457 12.631 13.9232 12.4391L14.0923 12.7541Z" stroke="#F9F3EC"/>
<path d="M17.11 0.834642L17.11 0.834645L17.1094 0.840236C17.1009 0.912046 17.107 0.944621 17.1156 0.971268C17.1272 1.00749 17.1558 1.0683 17.239 1.18318C18.0803 2.34076 18.5046 3.31674 18.3843 4.26709C18.3003 4.95614 18.0043 5.53576 17.3413 6.51204C16.495 7.7605 16.2999 8.13487 16.1153 8.75538C15.9969 9.15666 15.9664 9.37219 15.9689 9.87876C15.9739 10.3686 16.0243 10.6663 16.1947 11.1759C16.3085 11.5141 16.5218 11.9648 16.7437 12.3561C16.8538 12.5503 16.9607 12.7205 17.0521 12.8481C17.1158 12.9372 17.1572 12.9842 17.1758 13.0048C17.1988 12.9834 17.2367 12.9311 17.2448 12.8347C17.2494 12.7774 17.2452 12.7521 17.2311 12.7139C17.2095 12.6551 17.1611 12.5623 17.0412 12.3805L17.0412 12.3806L17.0398 12.3784C16.2764 11.2085 15.9358 10.0915 16.2126 9.0788L16.2127 9.07858C16.3864 8.44433 16.6025 8.05749 17.301 7.02094C17.5779 6.60959 17.8752 6.14787 17.9612 5.99863L17.9615 5.99815C18.4458 5.15961 18.6275 4.3732 18.5386 3.5762C18.4487 2.76978 18.0762 1.90241 17.363 0.91894L17.362 0.917583C17.3027 0.835303 17.2535 0.775945 17.213 0.733809C17.1957 0.715842 17.1812 0.702223 17.1693 0.692C17.1658 0.69593 17.162 0.700487 17.1581 0.705762C17.1352 0.736459 17.1157 0.7813 17.11 0.834642Z" stroke="#F9F3EC"/>
<path d="M6.60263 29.6158L6.60252 29.6156C5.8764 28.2997 5.23086 26.6842 4.78581 25.072C4.04592 22.3863 3.64066 18.8469 3.64066 14.9399V14.0468L3.68419 13.9311C3.74309 13.7808 3.81481 13.7036 3.88763 13.6616C3.89833 13.6611 3.9106 13.6606 3.92461 13.6601C4.01042 13.6569 4.14256 13.6539 4.33267 13.6513C4.71184 13.6459 5.30848 13.642 6.19776 13.6393C7.97559 13.6338 10.9153 13.6329 15.6062 13.6346C15.6062 13.6346 15.6062 13.6346 15.6063 13.6346L27.2111 13.6413L27.2423 13.6595C27.2426 13.6597 27.2429 13.6599 27.2432 13.6601C27.3282 13.7109 27.4103 13.8019 27.4654 13.9437C27.4656 13.9444 27.4659 13.945 27.4662 13.9457L27.5032 14.0448L27.4956 15.2081L27.4874 16.4636L27.4783 17.8642L28.3723 16.786L28.5721 16.5451L28.5724 16.5447C29.8778 14.9671 31.539 14.5393 32.8384 15.196C33.9027 15.7343 34.811 17.0761 35.1624 18.8608C35.2945 19.5322 35.3281 19.903 35.3281 20.7412C35.3254 21.3545 35.3146 21.5894 35.2717 21.9368C35.1137 23.2101 34.7996 24.2934 34.2917 25.3431C33.2244 27.5455 31.6554 28.709 30.1713 28.709C29.5932 28.709 29.2021 28.5968 28.7057 28.2923C28.5251 28.1786 28.2955 28.0085 28.2075 27.9266L28.2063 27.9255C27.9623 27.7002 27.6111 27.2717 27.4254 26.9722C27.3621 26.8684 27.2663 26.6931 27.1803 26.5266C27.1378 26.4443 27.0998 26.3682 27.0714 26.3085C27.0446 26.2522 27.0355 26.2295 27.0351 26.2297C27.0296 26.2118 27.0193 26.1813 27.0041 26.1494C26.9928 26.1257 26.9654 26.0719 26.9138 26.017C26.859 25.9588 26.7499 25.8722 26.5857 25.8591C26.4239 25.8461 26.3046 25.9123 26.2438 25.9573C26.185 26.0009 26.1487 26.0475 26.1321 26.0703C26.0983 26.1168 26.0772 26.1617 26.0685 26.1807C26.0335 26.2566 25.9856 26.3942 25.9198 26.5841M6.60263 29.6158L26.3653 26.8237C26.2806 26.7905 26.2206 26.7396 26.1852 26.702C26.174 26.69 26.164 26.6781 26.1551 26.6667M6.60263 29.6158L6.86262 30.0874L7.27126 30.8288H6.42473H4.04378C2.81309 30.8288 2.19044 30.8307 1.84701 30.8477C1.67417 30.8563 1.60298 30.8676 1.57261 30.875C1.57108 30.8753 1.56995 30.8755 1.56899 30.8757C1.56472 30.8765 1.56389 30.8767 1.54636 30.8875C1.54551 30.8881 1.54331 30.8897 1.53985 30.8925C1.53495 30.8964 1.52837 30.9022 1.52039 30.91C1.50415 30.926 1.48507 30.9475 1.46501 30.9743C1.42381 31.0293 1.38879 31.0925 1.3671 31.15L1.36711 31.15L1.36591 31.1532C1.34502 31.2074 1.33922 31.2318 1.33585 31.2529C1.33159 31.2794 1.32812 31.321 1.32812 31.4147C1.32812 31.5634 1.34207 31.6245 1.37091 31.6903C1.40994 31.7794 1.48882 31.9025 1.68068 32.1506L1.68146 32.1516C1.85713 32.3799 2.25567 32.9258 2.56655 33.3658C2.87469 33.802 3.26942 34.3375 3.44228 34.5518L3.44351 34.5534C4.08385 35.3538 4.75663 35.9291 5.62976 36.3788C6.51229 36.8332 7.61994 37.1698 9.1462 37.4627L9.14642 37.4627L9.77057 37.5827L6.60263 29.6158ZM25.9198 26.5841C25.9197 26.5844 25.9196 26.5847 25.9195 26.5851L26.1315 26.6585C26.1444 26.6876 26.1575 26.7152 26.1686 26.7385C26.2029 26.8107 26.246 26.8968 26.2918 26.9854C26.2945 26.9908 26.2973 26.9961 26.3001 27.0015C25.9672 27.8897 25.4566 28.976 24.9742 29.8266L24.6807 29.8254L24.68 29.9925L24.3987 29.8223L24.3978 29.8238C24.9505 28.8943 25.5757 27.5651 25.9198 26.5841ZM25.9198 26.5841C25.9199 26.5839 25.92 26.5836 25.9201 26.5833L26.1309 26.6573M26.1309 26.6573C26.1117 26.6142 26.0928 26.5681 26.0807 26.5286L26.0806 26.5286L26.0779 26.5192L26.0788 26.5222L26.0808 26.5285L26.0818 26.5315C26.0841 26.5383 26.0904 26.5567 26.1015 26.5799C26.1085 26.5946 26.1249 26.6274 26.1541 26.6654M26.1309 26.6573L26.1541 26.6654M26.1309 26.6573L26.1551 26.6667M26.1541 26.6654L26.3919 26.7488L26.1551 26.6667M26.1541 26.6654C26.1544 26.6658 26.1548 26.6663 26.1551 26.6667M30.3465 30.9837C30.2726 30.7733 30.0673 30.5256 29.884 30.4204M30.3465 30.9837C30.3902 31.1093 30.4094 31.228 30.4094 31.3977C30.4121 31.7846 30.3601 31.9067 29.9633 32.4157L29.884 30.4204M30.3465 30.9837L29.8747 31.1494C29.8747 31.1493 29.8746 31.1491 29.8745 31.149C29.8745 31.1488 29.8744 31.1486 29.8743 31.1484L30.3465 30.9837ZM29.884 30.4204L29.7553 30.3458M29.884 30.4204L29.7553 30.3458M29.7553 30.3458L27.2184 30.3356L25.2615 30.3277M29.7553 30.3458L25.2615 30.3277M25.2615 30.3277C25.2598 30.3307 25.258 30.3337 25.2562 30.3367L25.2543 30.3399L25.1065 30.5842L24.6787 30.3254L24.68 29.994L24.3968 29.8255L25.2615 30.3277ZM34.5663 21.5213L34.5664 21.5201C34.6161 20.9659 34.5889 19.9216 34.5068 19.4316C34.5068 19.4316 34.5068 19.4316 34.5068 19.4315L34.0137 19.5141C33.7701 18.0584 33.1023 16.9963 32.2184 16.6535C31.9748 16.5585 31.3837 16.528 31.11 16.5992L34.5663 21.5213ZM34.5663 21.5213C34.4395 22.9003 33.9966 24.2816 33.3181 25.381L34.5663 21.5213ZM30.1677 27.5508C29.9358 27.5526 29.7275 27.5394 29.5173 27.4815C29.3052 27.423 29.1224 27.3274 28.9296 27.2069C27.8564 26.5374 27.2451 25.0247 27.165 23.366L27.165 23.3656C27.0786 21.5462 27.5101 19.7599 28.4028 18.2878L28.4032 18.287C29.0758 17.1823 29.9752 16.3802 30.983 16.1156L30.984 16.1154C31.1949 16.0605 31.4714 16.0532 31.7004 16.0646C31.926 16.0759 32.2001 16.1099 32.3991 16.1873L32.3198 26.6077C31.9461 26.959 31.4287 27.2813 30.9835 27.4326L30.98 27.4338C30.8521 27.4762 30.7367 27.51 30.5986 27.5294C30.4679 27.5478 30.3326 27.5508 30.1677 27.5508ZM30.1677 27.5508C30.1684 27.5508 30.1691 27.5508 30.1698 27.5508L30.1658 27.0509V27.5508C30.1665 27.5508 30.1671 27.5508 30.1677 27.5508ZM26.7626 26.8072C26.7775 26.8357 26.7927 26.8644 26.8079 26.893C26.8082 26.8937 26.8086 26.8944 26.809 26.895C26.8214 26.9182 26.8338 26.9413 26.8461 26.9641C26.8521 26.9474 26.8579 26.9308 26.8637 26.9142L26.8643 26.9125C26.9 26.8097 26.9261 26.7349 26.9458 26.6804C26.9557 26.6533 26.9631 26.6333 26.9689 26.6186C26.9743 26.6045 26.9768 26.599 26.9768 26.599L26.9767 26.5992C26.9763 26.6001 26.9738 26.6055 26.9692 26.6138C26.9653 26.6211 26.9557 26.6381 26.9405 26.659C26.9277 26.6766 26.8948 26.7195 26.8392 26.7608C26.82 26.775 26.7943 26.7917 26.7626 26.8072ZM26.2605 36.4572C27.2321 35.8532 27.7958 35.2865 28.9152 33.7968L26.2605 36.4572Z" stroke="#F9F3EC"/>
</svg>
