<svg width="35" height="39" viewBox="0 0 35 39" fill="none" xmlns="http://www.w3.org/2000/svg">
<path d="M10.1096 0.280858C9.89071 0.40302 9.75387 0.660916 9.75387 0.949352C9.75387 1.18689 9.8086 1.31244 10.0576 1.65517C10.5229 2.28973 10.8705 2.97519 10.9827 3.48759C11.0894 3.95927 11.0456 4.49542 10.8705 4.92977C10.7418 5.24535 10.4983 5.65595 10.0166 6.37195C9.23389 7.53248 8.95475 8.05846 8.7577 8.74052C8.55518 9.43956 8.55518 10.2709 8.75496 11.0378C8.91643 11.6588 9.28315 12.4393 9.7265 13.101C9.9947 13.5048 10.1014 13.5795 10.3696 13.5591C10.5667 13.5455 10.6926 13.4471 10.813 13.2232C10.8705 13.1146 10.8869 13.0433 10.8869 12.877C10.8896 12.6293 10.8622 12.5615 10.5886 12.1407C9.95639 11.1702 9.67998 10.2913 9.7785 9.57868C9.86608 8.96788 10.096 8.49281 10.854 7.3696C11.4506 6.48054 11.6422 6.15817 11.8283 5.72721C12.0992 5.09605 12.2005 4.63794 12.1978 4.03053C12.1978 3.43669 12.1102 2.98198 11.8721 2.37457C11.6203 1.72643 10.906 0.569295 10.6241 0.355512C10.4682 0.236745 10.2492 0.202811 10.1096 0.280858Z" fill="#DAA450"/>
<path d="M13.054 0.436878C12.8104 0.504745 12.6216 0.813542 12.627 1.13252C12.627 1.37345 12.6736 1.47185 12.9691 1.88585C13.4152 2.51701 13.6862 3.03959 13.8257 3.53842C13.8941 3.77595 13.9024 3.85739 13.9024 4.21709C13.8996 4.59715 13.8941 4.64465 13.812 4.89916C13.6834 5.29618 13.4125 5.78143 12.8843 6.56191C12.2138 7.54938 12.025 7.87514 11.8115 8.40111C11.2724 9.7347 11.3818 11.0581 12.1563 12.5308C12.4464 13.084 12.7885 13.5896 12.9308 13.6846C13.2373 13.8848 13.6424 13.6574 13.7409 13.2333C13.8066 12.9516 13.7655 12.7989 13.5165 12.4087C13.2565 12.0015 13.0074 11.5468 12.8898 11.2617C12.679 10.7425 12.5887 10.1453 12.6544 9.72452C12.7502 9.1205 12.9828 8.65222 13.7436 7.52223C14.0255 7.10145 14.3375 6.61959 14.4333 6.45332C14.644 6.08683 14.9067 5.42852 14.9806 5.0824C15.2461 3.86418 14.9615 2.65614 14.0939 1.31576C13.7491 0.779608 13.5192 0.508139 13.3605 0.450451C13.2072 0.392764 13.21 0.392764 13.054 0.436878Z" fill="#DAA450"/>
<path d="M16.2226 0.43007C15.9927 0.501331 15.8148 0.738867 15.7847 1.02052C15.7546 1.27502 15.8121 1.44808 16.0064 1.71616C16.8302 2.84954 17.1558 3.6911 17.06 4.44442C16.9916 5.00772 16.7563 5.50315 16.0994 6.47026C15.2483 7.72581 15.0157 8.15337 14.8077 8.85241C14.6736 9.30712 14.638 9.5718 14.6408 10.1215C14.6462 10.6679 14.7065 11.0174 14.8925 11.5739C15.1471 12.3306 15.8094 13.4979 16.083 13.6744C16.4388 13.9051 16.8739 13.6099 16.915 13.1145C16.9341 12.8769 16.8767 12.7175 16.6304 12.3442C15.8997 11.2244 15.6451 10.2607 15.8668 9.44964C16.0173 8.89991 16.1925 8.57076 16.8876 7.53917C17.164 7.12858 17.4705 6.65351 17.5663 6.48723C18.6227 4.65821 18.4284 2.91741 16.9396 0.864421C16.6659 0.484364 16.458 0.35881 16.2226 0.43007Z" fill="#DAA450"/>
<path d="M2.9283 13.4108C2.68199 13.5058 2.50137 13.7027 2.38916 13.9911L2.31253 14.1947V15.1788C2.31253 19.1151 2.72031 22.7019 3.47564 25.4437C3.92994 27.0895 4.58949 28.7421 5.33662 30.096L5.59661 30.5677H3.21565C0.76902 30.5677 0.659551 30.5745 0.45156 30.7034C0.306513 30.795 0.15052 31.002 0.0711549 31.2124C0.0136836 31.3617 0 31.45 0 31.6536C0 32.0302 0.0738916 32.1999 0.457033 32.6953C0.62671 32.9159 1.0208 33.4554 1.33005 33.8932C1.6393 34.3309 2.0416 34.8773 2.22496 35.1046C3.58238 36.8013 5.12863 37.5987 8.22386 38.1926L8.89436 38.3215L14.6634 38.3317L20.4324 38.3385L20.9579 38.2367C22.9858 37.8363 24.3651 37.3612 25.4324 36.6961C26.4039 36.0921 26.9677 35.5254 28.087 34.0357C28.4729 33.5165 28.9436 32.8955 29.1352 32.6546C29.532 32.1456 29.584 32.0234 29.5813 31.6366C29.5813 31.4669 29.5621 31.3482 29.5183 31.2226C29.4444 31.0122 29.2392 30.7645 29.0558 30.6593L28.9272 30.5847L26.3903 30.5745L23.8506 30.5643L23.9984 30.32C24.5676 29.363 25.208 28.0023 25.5638 26.9877C25.7061 26.5771 25.7143 26.5635 25.7307 26.6212C25.7608 26.7196 26.0263 27.2354 26.1713 27.4729C26.3793 27.8089 26.7597 28.2738 27.0389 28.5317C27.1593 28.6437 27.4193 28.8337 27.6136 28.9558C28.1883 29.3088 28.6699 29.4479 29.3432 29.4479C31.1002 29.4479 32.8051 28.0871 33.9135 25.8C34.4472 24.6972 34.7756 23.5604 34.9398 22.237C34.9863 21.8603 34.9973 21.6024 35 20.9814C35 20.1161 34.9644 19.7123 34.8248 19.0031C34.4554 17.1266 33.4839 15.6199 32.2359 14.9887C30.665 14.1947 28.763 14.7682 27.3591 16.4649L27.1593 16.7058L27.1675 15.4502L27.1757 14.1947L27.1045 14.0047C27.0142 13.7705 26.8637 13.5839 26.6694 13.4685L26.5189 13.3803L14.7783 13.3735C5.39683 13.3701 3.01587 13.3769 2.9283 13.4108ZM31.3903 16.8924C32.2742 17.2351 32.942 18.2973 33.1855 19.753C33.2594 20.1942 33.2868 21.1952 33.2403 21.7144C33.1199 23.0242 32.6984 24.3307 32.0635 25.3589C31.8555 25.7016 31.4313 26.2174 31.1494 26.4821C30.821 26.7909 30.364 27.0725 29.9945 27.1981C29.7592 27.2761 29.6661 27.2897 29.3377 27.2897C28.9108 27.2931 28.7137 27.2388 28.3662 27.0216C27.4959 26.4787 26.913 25.1688 26.8363 23.5807C26.7542 21.8535 27.1647 20.167 28.0022 18.7859C28.6344 17.7475 29.4417 17.0587 30.2819 16.8381C30.5556 16.7669 31.1467 16.7974 31.3903 16.8924Z" fill="#DAA450"/>
</svg>
