<svg width="15" height="15" viewBox="0 0 15 15" fill="none" xmlns="http://www.w3.org/2000/svg">
<path d="M10.6518 0.0084584C10.2932 0.0323247 10.1655 0.0466446 9.89363 0.0907973C8.01863 0.392707 5.9948 1.44163 4.203 3.03829C3.71785 3.47147 3.16707 4.03949 2.7405 4.54665C2.0116 5.41299 1.43621 6.29008 0.967457 7.24354C0.160035 8.88913 -0.152856 10.4894 0.0698007 11.8354C0.213941 12.6994 0.605348 13.4631 1.17722 13.9894C1.78543 14.549 2.52371 14.8641 3.47996 14.9727C3.73074 15.0013 4.35535 15.0013 4.6284 14.9727C5.73465 14.8569 6.78465 14.5299 7.93308 13.944C10.6331 12.5681 13.0671 10.0061 14.2436 7.30321C14.8917 5.81395 15.1296 4.37958 14.9292 3.16478C14.785 2.29843 14.3925 1.5359 13.8159 1.00488C13.1772 0.41538 12.3475 0.0836374 11.3315 0.0120383C11.1768 0.00129849 10.7831 -0.00108814 10.6518 0.0084584ZM13.1925 1.92373C13.2792 2.01204 13.0143 2.52636 12.5292 3.2161C11.0116 5.37123 8.02215 8.3581 4.65183 11.0872C3.12371 12.3247 1.90613 13.1755 1.80652 13.0741C1.63191 12.8963 4.00144 10.2901 7.10105 7.24832C9.97215 4.43328 12.5245 2.16598 13.087 1.93328C13.1526 1.90703 13.1737 1.90464 13.1925 1.92373Z" fill="#423706"/>
</svg>
