<svg width="15" height="15" viewBox="0 0 15 15" fill="none" xmlns="http://www.w3.org/2000/svg">
<g clip-path="url(#clip0_332_5577)">
<path d="M10.6518 0.00833633C10.2932 0.0322027 10.1655 0.0465225 9.89363 0.0906752C8.01863 0.392585 5.9948 1.44151 4.203 3.03817C3.71785 3.47134 3.16707 4.03936 2.7405 4.54652C2.0116 5.41287 1.43621 6.28996 0.967457 7.24342C0.160035 8.88901 -0.152856 10.4892 0.0698007 11.8353C0.213941 12.6993 0.605348 13.463 1.17722 13.9892C1.78543 14.5489 2.52371 14.8639 3.47996 14.9725C3.73074 15.0012 4.35535 15.0012 4.6284 14.9725C5.73465 14.8568 6.78465 14.5298 7.93308 13.9439C10.6331 12.568 13.0671 10.006 14.2436 7.30309C14.8917 5.81383 15.1296 4.37946 14.9292 3.16466C14.785 2.29831 14.3925 1.53578 13.8159 1.00476C13.1772 0.415258 12.3475 0.0835153 11.3315 0.0119163C11.1768 0.00117642 10.7831 -0.00121021 10.6518 0.00833633ZM13.1925 1.92361C13.2792 2.01192 13.0143 2.52624 12.5292 3.21597C11.0116 5.37111 8.02215 8.35798 4.65183 11.0871C3.12371 12.3246 1.90613 13.1754 1.80652 13.074C1.63191 12.8962 4.00144 10.29 7.10105 7.24819C9.97215 4.43316 12.5245 2.16585 13.087 1.93316C13.1526 1.9069 13.1737 1.90452 13.1925 1.92361Z" fill="#F9F3EC"/>
</g>
<defs>
<clipPath id="clip0_332_5577">
<rect width="15" height="15" fill="white"/>
</clipPath>
</defs>
</svg>
