<svg width="36" height="39" viewBox="0 0 36 39" fill="none" xmlns="http://www.w3.org/2000/svg">
<mask id="path-1-inside-1_329_5393" fill="white">
<path d="M10.9378 0.280736C10.7188 0.402898 10.582 0.660793 10.582 0.94923C10.582 1.18677 10.6367 1.31232 10.8858 1.65505C11.351 2.28961 11.6986 2.97507 11.8108 3.48747C11.9175 3.95915 11.8737 4.4953 11.6986 4.92965C11.57 5.24523 11.3264 5.65583 10.8447 6.37183C10.062 7.53236 9.78287 8.05833 9.58583 8.7404C9.38331 9.43943 9.38331 10.2708 9.58309 11.0377C9.74456 11.6587 10.1113 12.4392 10.5546 13.1009C10.8228 13.5047 10.9296 13.5793 11.1978 13.559C11.3948 13.5454 11.5207 13.447 11.6411 13.223C11.6986 13.1145 11.715 13.0432 11.715 12.8769C11.7177 12.6292 11.6904 12.5613 11.4167 12.1406C10.7845 11.1701 10.5081 10.2912 10.6066 9.57856C10.6942 8.96776 10.9241 8.49268 11.6822 7.36948C12.2788 6.48042 12.4703 6.15805 12.6564 5.72709C12.9274 5.09592 13.0286 4.63782 13.0259 4.03041C13.0259 3.43657 12.9383 2.98186 12.7002 2.37444C12.4484 1.72631 11.7342 0.569173 11.4523 0.35539C11.2963 0.236623 11.0773 0.202689 10.9378 0.280736Z"/>
</mask>
<path d="M10.9378 0.280736L12.402 2.89916L12.3995 2.90052L10.9378 0.280736ZM10.8858 1.65505L8.46635 3.42891L8.45883 3.41856L10.8858 1.65505ZM11.8108 3.48747L8.88476 4.14958L8.88246 4.1394L8.88023 4.12921L11.8108 3.48747ZM11.6986 4.92965L14.4809 6.05161L14.4767 6.06196L11.6986 4.92965ZM10.8447 6.37183L13.3339 8.04634L13.3319 8.04928L10.8447 6.37183ZM9.58583 8.7404L12.468 9.57303L12.4673 9.57521L9.58583 8.7404ZM9.58309 11.0377L12.4862 10.2814L12.4865 10.2828L9.58309 11.0377ZM10.5546 13.1009L13.0469 11.431L13.0537 11.4411L10.5546 13.1009ZM11.1978 13.559L10.9707 10.5676L10.9811 10.5668L10.9916 10.5661L11.1978 13.559ZM11.6411 13.223L14.2926 14.6264L14.288 14.6351L14.2834 14.6437L11.6411 13.223ZM11.715 12.8769H8.715V12.8603L8.71518 12.8438L11.715 12.8769ZM11.4167 12.1406L13.9304 10.5031L13.9316 10.5049L11.4167 12.1406ZM10.6066 9.57856L7.63489 9.1677L7.63592 9.16024L7.63699 9.15279L10.6066 9.57856ZM11.6822 7.36948L14.1733 9.04114L14.1688 9.04776L11.6822 7.36948ZM12.6564 5.72709L15.4132 6.91046L15.4106 6.91641L12.6564 5.72709ZM13.0259 4.03041L10.0259 4.04392V4.03041H13.0259ZM12.7002 2.37444L9.90712 3.46929L9.90381 3.46076L12.7002 2.37444ZM11.4523 0.35539L9.63943 2.74571L9.63496 2.74231L11.4523 0.35539ZM12.3995 2.90052C13.295 2.40086 13.582 1.54559 13.582 0.94923H7.58199C7.58199 -0.224003 8.14263 -1.59506 9.47601 -2.33904L12.3995 2.90052ZM13.582 0.94923C13.582 0.895197 13.5792 0.76063 13.5477 0.584182C13.5142 0.396361 13.4596 0.223866 13.3953 0.0747576C13.337 -0.0602891 13.2833 -0.146842 13.2709 -0.166541C13.2599 -0.184024 13.266 -0.1727 13.3127 -0.108464L8.45883 3.41856C8.33153 3.24337 8.07523 2.89011 7.88571 2.45063C7.6385 1.87736 7.58199 1.35968 7.58199 0.94923H13.582ZM13.3052 -0.118792C13.9009 0.693787 14.5052 1.76747 14.7413 2.84573L8.88023 4.12921C8.89534 4.19822 8.89124 4.14447 8.80321 3.9703C8.72385 3.81328 8.6089 3.62329 8.46637 3.42889L13.3052 -0.118792ZM14.7368 2.82536C14.9767 3.88555 14.887 5.04447 14.4809 6.0516L8.91627 3.80769C8.87962 3.8986 8.87195 3.95789 8.86967 3.98674C8.86733 4.01637 8.86642 4.06853 8.88476 4.14958L14.7368 2.82536ZM14.4767 6.06196C14.2171 6.69888 13.8067 7.34358 13.3339 8.04634L8.35554 4.69732C8.58341 4.3586 8.72832 4.1313 8.82285 3.97171C8.91787 3.81128 8.93205 3.76894 8.92047 3.79734L14.4767 6.06196ZM13.3319 8.04928C12.9545 8.60892 12.7609 8.92494 12.6449 9.14323C12.5505 9.32091 12.5093 9.43011 12.468 9.57303L6.70369 7.90777C7.03563 6.75875 7.53443 5.9148 8.35752 4.69438L13.3319 8.04928ZM12.4673 9.57521C12.4294 9.70606 12.409 9.98501 12.4862 10.2814L6.67998 11.794C6.35764 10.5566 6.33719 9.17281 6.70432 7.9056L12.4673 9.57521ZM12.4865 10.2828C12.5463 10.5126 12.7494 10.987 13.0469 11.431L8.06233 14.7707C7.47315 13.8914 6.94279 12.8047 6.67963 11.7927L12.4865 10.2828ZM13.0537 11.4411C13.1024 11.5145 13.095 11.498 13.0527 11.4463C13.011 11.3953 12.8652 11.2221 12.6137 11.0434C12.3262 10.8391 11.9842 10.6863 11.6136 10.6117C11.2869 10.546 11.0382 10.5625 10.9707 10.5676L11.4248 16.5504C10.9299 16.588 10.0292 16.5673 9.13865 15.9346C8.5297 15.5019 8.1613 14.9198 8.0556 14.7607L13.0537 11.4411ZM10.9916 10.5661C10.5925 10.5936 10.0896 10.7329 9.62833 11.0849C9.22751 11.3908 9.04364 11.719 8.99881 11.8024L14.2834 14.6437C14.1182 14.951 13.8111 15.4405 13.268 15.8549C12.6644 16.3155 12.0001 16.5108 11.4039 16.5519L10.9916 10.5661ZM8.98958 11.8197C8.93845 11.9163 8.83256 12.1363 8.76746 12.4372C8.7387 12.5701 8.72613 12.6807 8.72033 12.7563C8.7149 12.8271 8.715 12.8737 8.715 12.8769H14.715C14.715 13.036 14.7101 13.3442 14.6318 13.7061C14.5441 14.1113 14.4012 14.4212 14.2926 14.6264L8.98958 11.8197ZM8.71518 12.8438C8.71544 12.8206 8.71164 12.9451 8.73506 13.1184C8.76323 13.3267 8.81803 13.5248 8.88884 13.6997C8.91985 13.7762 8.94833 13.8345 8.96674 13.8701C8.97606 13.8881 8.98355 13.9018 8.98838 13.9105C8.99321 13.9191 8.99608 13.924 8.9963 13.9244C8.99653 13.9248 8.99485 13.9219 8.99068 13.9151C8.98652 13.9084 8.98057 13.8988 8.97236 13.8858C8.95538 13.859 8.93296 13.8241 8.90182 13.7762L13.9316 10.5049C14.0252 10.6489 14.2795 11.0262 14.4502 11.4476C14.7098 12.0887 14.7179 12.6313 14.7148 12.9101L8.71518 12.8438ZM8.90297 13.778C8.09932 12.5443 7.39305 10.9169 7.63489 9.1677L13.5784 9.98942C13.6039 9.80452 13.5623 9.74529 13.5984 9.85954C13.634 9.97231 13.7254 10.1884 13.9304 10.5031L8.90297 13.778ZM7.63699 9.15279C7.82904 7.81334 8.41372 6.84956 9.19552 5.6912L14.1688 9.04776C13.8021 9.59109 13.656 9.84426 13.5908 9.97825C13.566 10.0292 13.5655 10.0381 13.5714 10.0191C13.578 9.99773 13.5789 9.98624 13.5763 10.0043L7.63699 9.15279ZM9.19106 5.69783C9.78237 4.81666 9.8352 4.69304 9.90225 4.53777L15.4106 6.91641C15.1055 7.62305 14.7752 8.14417 14.1733 9.04114L9.19106 5.69783ZM9.89969 4.54372C9.98484 4.34535 10.0063 4.25996 10.0129 4.22959C10.0174 4.20914 10.0265 4.1658 10.0259 4.04392L16.0259 4.01689C16.0307 5.09323 15.8221 5.95792 15.4132 6.91046L9.89969 4.54372ZM10.0259 4.03041C10.0259 3.88943 10.0161 3.82427 10.0082 3.78394C9.99941 3.73885 9.97796 3.64997 9.90714 3.46928L15.4933 1.2796C15.8582 2.21057 16.0259 3.03568 16.0259 4.03041H10.0259ZM9.90381 3.46076C9.9039 3.461 9.90134 3.45442 9.89532 3.44054C9.8894 3.42688 9.88117 3.40853 9.87033 3.38544C9.84832 3.33858 9.81939 3.28031 9.78363 3.21234C9.71128 3.07481 9.62425 2.92274 9.53531 2.77879C9.44398 2.63095 9.36892 2.52125 9.32329 2.45989C9.30016 2.42877 9.30123 2.43257 9.32515 2.45973C9.33793 2.47423 9.36645 2.50591 9.4094 2.54804C9.4488 2.58668 9.52696 2.6604 9.63944 2.74571L13.2651 -2.03493C13.7108 -1.69693 14.029 -1.26699 14.1383 -1.12006C14.3137 -0.88408 14.4858 -0.623904 14.6398 -0.374715C14.9284 0.0924236 15.276 0.720069 15.4966 1.28813L9.90381 3.46076ZM9.63496 2.74231C9.96931 2.99687 10.352 3.15306 10.7495 3.21191C11.1229 3.26719 11.745 3.26653 12.402 2.89916L9.47358 -2.33769C10.2701 -2.78311 11.0715 -2.80582 11.6282 -2.72339C12.2091 -2.6374 12.7792 -2.40486 13.2696 -2.03153L9.63496 2.74231Z" fill="#423706" mask="url(#path-1-inside-1_329_5393)"/>
<mask id="path-3-inside-2_329_5393" fill="white">
<path d="M13.8821 0.437C13.6385 0.504867 13.4497 0.813664 13.4552 1.13264C13.4552 1.37357 13.5017 1.47198 13.7973 1.88597C14.2433 2.51713 14.5143 3.03971 14.6539 3.53854C14.7223 3.77607 14.7305 3.85751 14.7305 4.21721C14.7277 4.59727 14.7223 4.64478 14.6402 4.89928C14.5115 5.2963 14.2406 5.78155 13.7124 6.56203C13.0419 7.5495 12.8531 7.87526 12.6396 8.40123C12.1005 9.73483 12.21 11.0582 12.9845 12.531C13.2745 13.0841 13.6166 13.5897 13.7589 13.6847C14.0655 13.8849 14.4705 13.6576 14.569 13.2334C14.6347 12.9517 14.5936 12.799 14.3446 12.4088C14.0846 12.0016 13.8356 11.5469 13.7179 11.2618C13.5072 10.7427 13.4169 10.1454 13.4825 9.72465C13.5783 9.12063 13.8109 8.65234 14.5718 7.52235C14.8536 7.10157 15.1656 6.61971 15.2614 6.45344C15.4721 6.08696 15.7349 5.42864 15.8088 5.08252C16.0742 3.8643 15.7896 2.65626 14.9221 1.31588C14.5772 0.77973 14.3473 0.508261 14.1886 0.450574C14.0354 0.392887 14.0381 0.392886 13.8821 0.437Z"/>
</mask>
<path d="M13.8821 0.437L14.6985 3.32381L14.6873 3.32691L13.8821 0.437ZM13.4552 1.13264L16.4547 1.08117L16.4552 1.1069V1.13264H13.4552ZM13.7973 1.88597L16.2389 0.142805L16.243 0.14863L16.2471 0.154475L13.7973 1.88597ZM14.6539 3.53854L11.7711 4.36888L11.7679 4.3579L11.7648 4.3469L14.6539 3.53854ZM14.7305 4.21721H17.7305V4.22801L17.7304 4.23881L14.7305 4.21721ZM14.6402 4.89928L17.4953 5.82033L17.4941 5.82389L14.6402 4.89928ZM13.7124 6.56203L16.1969 8.24344L16.1943 8.24727L13.7124 6.56203ZM12.6396 8.40123L9.85831 7.27682L9.85984 7.27306L12.6396 8.40123ZM12.9845 12.531L15.6397 11.1346L15.6412 11.1376L12.9845 12.531ZM13.7589 13.6847L12.1184 16.1964L12.1057 16.1881L12.0931 16.1797L13.7589 13.6847ZM14.569 13.2334L11.6468 12.5546L11.6474 12.5521L14.569 13.2334ZM14.3446 12.4088L16.8732 10.7944L16.8735 10.7949L14.3446 12.4088ZM13.7179 11.2618L10.9449 12.4067L10.9415 12.3984L10.9381 12.3901L13.7179 11.2618ZM13.4825 9.72465L10.5184 9.26196L10.5196 9.25478L13.4825 9.72465ZM14.5718 7.52235L17.0642 9.19205L17.0603 9.19784L14.5718 7.52235ZM15.2614 6.45344L17.8621 7.94885L17.8609 7.95094L15.2614 6.45344ZM15.8088 5.08252L12.8748 4.45618L12.8775 4.44378L15.8088 5.08252ZM14.9221 1.31588L12.4035 2.94596L12.3989 2.93868L14.9221 1.31588ZM14.1886 0.450574L13.1639 3.27014L13.1478 3.26429L13.1318 3.25826L14.1886 0.450574ZM14.6873 3.32691C15.4942 3.10208 15.9364 2.57904 16.1329 2.2586C16.3459 1.91114 16.4621 1.50844 16.4547 1.08117L10.4556 1.18411C10.4428 0.437863 10.6506 -0.278719 11.0176 -0.877292C11.368 -1.44884 12.0264 -2.16022 13.0769 -2.45291L14.6873 3.32691ZM16.4552 1.13264C16.4552 1.10316 16.4548 0.956377 16.419 0.759061C16.3797 0.542243 16.3145 0.352093 16.2447 0.199113C16.2134 0.130542 16.1856 0.0789646 16.1679 0.047827C16.1589 0.0320069 16.1518 0.0201272 16.1473 0.012733C16.145 0.00897317 16.1432 0.00614104 16.142 0.00430728C16.1409 0.00247338 16.1403 0.00150623 16.1402 0.00147685C16.1402 0.00144695 16.1407 0.00222587 16.1418 0.00388414C16.1429 0.00554165 16.1445 0.00795446 16.1467 0.011192C16.1511 0.0177766 16.1574 0.0269673 16.1659 0.0393012C16.1834 0.0646713 16.2068 0.0978386 16.2389 0.142805L11.3557 3.62913C11.239 3.46567 10.9751 3.10406 10.786 2.6897C10.5047 2.07302 10.4552 1.52883 10.4552 1.13264H16.4552ZM16.2471 0.154475C16.8033 0.941415 17.2771 1.78035 17.5429 2.73017L11.7648 4.3469C11.7514 4.29908 11.6834 4.09285 11.3474 3.61746L16.2471 0.154475ZM17.5367 2.7082C17.5883 2.88738 17.661 3.15566 17.6993 3.49929C17.7311 3.7839 17.7305 4.05405 17.7305 4.21721H11.7305C11.7305 4.17719 11.7304 4.14716 11.7301 4.12347C11.7299 4.09977 11.7296 4.08713 11.7295 4.08186C11.7291 4.071 11.7298 4.10593 11.7363 4.16484C11.7397 4.19504 11.7442 4.22743 11.7498 4.26104C11.7555 4.29444 11.7613 4.32334 11.7664 4.34634C11.7756 4.38738 11.7815 4.40526 11.7711 4.36888L17.5367 2.7082ZM17.7304 4.23881C17.7294 4.38071 17.7304 4.68508 17.6896 4.99585C17.6392 5.37964 17.5407 5.67958 17.4953 5.82033L11.7851 3.97823C11.7932 3.95302 11.7962 3.9433 11.7968 3.94117C11.7972 3.93979 11.7929 3.95405 11.7865 3.97833C11.7798 4.00401 11.7711 4.03991 11.7623 4.08356C11.7535 4.12787 11.7462 4.17202 11.7406 4.21481C11.7297 4.29773 11.7283 4.35113 11.7286 4.34266C11.7288 4.33892 11.7291 4.3266 11.7295 4.30025C11.7299 4.27394 11.7302 4.2409 11.7306 4.19561L17.7304 4.23881ZM17.4941 5.82389C17.2235 6.65928 16.735 7.44834 16.1969 8.24344L11.2279 4.88062C11.4691 4.52419 11.6159 4.28724 11.7064 4.12494C11.7959 3.96465 11.801 3.92904 11.7862 3.97466L17.4941 5.82389ZM16.1943 8.24727C15.8605 8.73891 15.6974 8.99223 15.5966 9.16517C15.5199 9.29687 15.4802 9.37967 15.4194 9.5294L9.85984 7.27306C10.1985 6.43858 10.5384 5.89604 11.2305 4.87678L16.1943 8.24727ZM15.4209 9.52564C15.2653 9.91073 15.2054 10.3088 15.6397 11.1346L10.3292 13.9273C9.21452 11.8077 8.93572 9.55892 9.85831 7.27682L15.4209 9.52564ZM15.6412 11.1376C15.6889 11.2285 15.7393 11.3184 15.7885 11.4014C15.8381 11.4852 15.8821 11.5543 15.9161 11.6048C15.9328 11.6297 15.9447 11.6464 15.9514 11.6556C15.9587 11.6656 15.956 11.6613 15.9433 11.6458C15.9334 11.6336 15.8974 11.59 15.8384 11.5298C15.8079 11.4986 15.7616 11.4533 15.7009 11.4005C15.643 11.35 15.5497 11.2731 15.4248 11.1897L12.0931 16.1797C11.6533 15.886 11.3644 15.5247 11.294 15.4384C11.1608 15.2751 11.0399 15.1056 10.9382 14.9545C10.732 14.648 10.5186 14.2884 10.3277 13.9244L15.6412 11.1376ZM15.3995 11.173C14.4966 10.5833 13.4669 10.6898 12.7791 11.074C12.133 11.4349 11.7728 12.0124 11.6468 12.5546L17.4912 13.9121C17.2668 14.8785 16.6547 15.7818 15.7049 16.3123C14.7132 16.8662 13.3278 16.9863 12.1184 16.1964L15.3995 11.173ZM11.6474 12.5521C11.6359 12.6013 11.6029 12.7536 11.5976 12.9658C11.5918 13.1973 11.6204 13.4297 11.6797 13.6482C11.7341 13.8484 11.8004 13.9848 11.826 14.0346C11.8494 14.08 11.8561 14.086 11.8157 14.0227L16.8735 10.7949C17.01 11.0089 17.3072 11.4764 17.4699 12.0754C17.6759 12.8336 17.5926 13.4774 17.4906 13.9147L11.6474 12.5521ZM11.816 14.0232C11.5103 13.5443 11.1578 12.9224 10.9449 12.4067L16.4909 10.117C16.4876 10.1092 16.4952 10.1278 16.5191 10.1764C16.5417 10.2221 16.5721 10.2808 16.6101 10.3503C16.6869 10.4908 16.7796 10.6479 16.8732 10.7944L11.816 14.0232ZM10.9381 12.3901C10.5828 11.5147 10.3473 10.3582 10.5184 9.26196L16.4466 10.1873C16.4547 10.1357 16.4583 10.0951 16.4599 10.0672C16.4616 10.039 16.4616 10.0191 16.4613 10.008C16.4609 9.9872 16.4596 9.98635 16.4622 10.0038C16.4648 10.0204 16.4694 10.0438 16.4767 10.0705C16.484 10.0972 16.4917 10.119 16.4977 10.1336L10.9381 12.3901ZM10.5196 9.25478C10.7277 7.94244 11.309 6.99685 12.0832 5.84686L17.0603 9.19784C16.6893 9.74884 16.5371 10.0087 16.4664 10.1515C16.439 10.207 16.4368 10.2196 16.4418 10.204C16.4477 10.1857 16.4484 10.1761 16.4455 10.1945L10.5196 9.25478ZM12.0793 5.85266C12.2114 5.65546 12.3507 5.44381 12.4663 5.26476C12.5242 5.17515 12.5734 5.09795 12.6114 5.0374C12.6545 4.9687 12.6673 4.94657 12.6619 4.95594L17.8609 7.95094C17.7059 8.22002 17.3361 8.78606 17.0642 9.19204L12.0793 5.85266ZM12.6607 4.95803C12.659 4.96098 12.6759 4.9311 12.7073 4.86383C12.7367 4.80092 12.769 4.72614 12.8002 4.64809C12.8316 4.56941 12.8563 4.50108 12.8728 4.45117C12.8926 4.39102 12.8874 4.39735 12.8749 4.45618L18.7426 5.70886C18.5925 6.41226 18.1995 7.3621 17.8621 7.94885L12.6607 4.95803ZM12.8775 4.44378C12.9284 4.21034 12.9649 3.81329 12.4035 2.94595L17.4406 -0.314187C18.6143 1.49923 19.22 3.51826 18.74 5.72126L12.8775 4.44378ZM12.3989 2.93868C12.2531 2.71212 12.1919 2.63753 12.1968 2.64332C12.2008 2.64807 12.2621 2.72121 12.3769 2.81898C12.4372 2.87033 12.5283 2.94221 12.6495 3.01873C12.7695 3.09456 12.942 3.18951 13.1639 3.27014L15.2133 -2.36899C16.0916 -2.04982 16.6231 -1.41406 16.7743 -1.23571C17.02 -0.945726 17.2461 -0.616509 17.4453 -0.306918L12.3989 2.93868ZM13.1318 3.25826C13.0565 3.22991 13.1246 3.25677 13.2024 3.28112C13.3147 3.31624 13.5679 3.38767 13.9025 3.40262C14.2387 3.41765 14.4994 3.36864 14.6195 3.34219C14.7026 3.32388 14.7752 3.30209 14.6985 3.32379L13.0657 -2.44979C13.067 -2.45015 13.1978 -2.48849 13.329 -2.51739C13.4973 -2.55445 13.7961 -2.60812 14.1703 -2.5914C14.5428 -2.57475 14.8338 -2.49526 14.9936 -2.4453C15.1189 -2.4061 15.2441 -2.3576 15.2455 -2.35711L13.1318 3.25826Z" fill="#423706" mask="url(#path-3-inside-2_329_5393)"/>
<mask id="path-5-inside-3_329_5393" fill="white">
<path d="M17.0507 0.43007C16.8208 0.501331 16.6429 0.738867 16.6128 1.02052C16.5827 1.27502 16.6402 1.44808 16.8345 1.71616C17.6583 2.84954 17.9839 3.6911 17.8882 4.44442C17.8197 5.00772 17.5844 5.50315 16.9276 6.47026C16.0764 7.72581 15.8438 8.15337 15.6358 8.85241C15.5017 9.30712 15.4662 9.5718 15.4689 10.1215C15.4744 10.6679 15.5346 11.0174 15.7207 11.5739C15.9752 12.3306 16.6375 13.4979 16.9111 13.6744C17.2669 13.9051 17.7021 13.6099 17.7431 13.1145C17.7623 12.8769 17.7048 12.7175 17.4585 12.3442C16.7278 11.2244 16.4733 10.2607 16.6949 9.44964C16.8455 8.89991 17.0206 8.57076 17.7157 7.53917C17.9922 7.12858 18.2987 6.65351 18.3945 6.48723C19.4508 4.65821 19.2565 2.91741 17.7677 0.864421C17.4941 0.484364 17.2861 0.35881 17.0507 0.43007Z"/>
</mask>
<path d="M17.0507 0.43007L16.1625 -2.43541L16.1719 -2.43834L16.1814 -2.44121L17.0507 0.43007ZM16.6128 1.02052L19.5959 1.33935L19.5941 1.35615L19.5921 1.37292L16.6128 1.02052ZM16.8345 1.71616L14.4078 3.47994L14.4055 3.47678L16.8345 1.71616ZM17.8882 4.44442L14.91 4.0827L14.9111 4.07436L14.9121 4.06602L17.8882 4.44442ZM16.9276 6.47026L14.4444 4.78692L14.4458 4.78477L16.9276 6.47026ZM15.6358 8.85241L12.7583 8.0038L12.7604 7.99685L15.6358 8.85241ZM15.4689 10.1215L12.469 10.1516L12.469 10.144L12.4689 10.1365L15.4689 10.1215ZM15.7207 11.5739L12.8772 12.5303L12.8755 12.5253L15.7207 11.5739ZM16.9111 13.6744L18.5368 11.153L18.5436 11.1574L16.9111 13.6744ZM17.7431 13.1145L20.7334 13.3556L20.7329 13.3622L17.7431 13.1145ZM17.4585 12.3442L14.9545 13.9965L14.9503 13.99L14.9461 13.9836L17.4585 12.3442ZM16.6949 9.44964L13.8011 8.65866L13.8015 8.65737L16.6949 9.44964ZM17.7157 7.53917L20.2044 9.21449L20.2036 9.21562L17.7157 7.53917ZM18.3945 6.48723L15.7949 4.98973L15.7966 4.98682L18.3945 6.48723ZM17.7677 0.864421L15.3391 2.62562L15.3332 2.61747L17.7677 0.864421ZM17.939 3.29556C19.0683 2.94549 19.5245 2.00732 19.5959 1.33935L13.6298 0.701678C13.7614 -0.529583 14.5734 -1.94282 16.1625 -2.43541L17.939 3.29556ZM19.5921 1.37292C19.6164 1.16753 19.6188 0.828514 19.4957 0.445456C19.4421 0.278591 19.3798 0.151633 19.3347 0.0706084C19.3125 0.0307346 19.2939 0.00106516 19.2821 -0.017134C19.276 -0.0263916 19.2713 -0.0333225 19.2683 -0.0377404C19.2652 -0.0421566 19.2636 -0.0444641 19.2636 -0.0444642L14.4055 3.47678C14.2265 3.22981 13.9577 2.82347 13.7834 2.28104C13.5905 1.6808 13.5792 1.12801 13.6336 0.668116L19.5921 1.37292ZM19.2613 -0.0476235C20.193 1.23435 21.1106 2.88478 20.8642 4.82283L14.9121 4.06602C14.8846 4.28259 14.9408 4.38952 14.9078 4.30405C14.8638 4.19015 14.736 3.93152 14.4078 3.47994L19.2613 -0.0476235ZM20.8663 4.80614C20.7057 6.12781 20.1065 7.12925 19.4093 8.15575L14.4458 4.78477C14.749 4.33835 14.8687 4.12415 14.918 4.0202C14.9369 3.98025 14.9345 3.97898 14.9265 4.00586C14.9176 4.03579 14.9122 4.06538 14.91 4.0827L20.8663 4.80614ZM19.4108 8.15361C18.9862 8.77992 18.7904 9.0925 18.6774 9.30064C18.5979 9.44717 18.5634 9.53263 18.5113 9.70796L12.7604 7.99685C13.1079 6.82909 13.5668 6.08142 14.4444 4.78692L19.4108 8.15361ZM18.5133 9.70101C18.4915 9.77488 18.4821 9.81291 18.478 9.83084C18.4761 9.83918 18.4754 9.84308 18.4753 9.84373C18.4752 9.84418 18.4752 9.84425 18.4752 9.84408C18.4753 9.84391 18.4753 9.84386 18.4752 9.84404C18.4752 9.84413 18.4748 9.84708 18.4742 9.85408C18.4736 9.86131 18.4727 9.87396 18.4718 9.8937C18.4699 9.93517 18.4683 10.0004 18.4689 10.1066L12.4689 10.1365C12.4649 9.33465 12.5309 8.77496 12.7584 8.00381L18.5133 9.70101ZM18.4687 10.0915C18.4704 10.2553 18.4793 10.3102 18.4831 10.3321C18.4877 10.3591 18.5018 10.4311 18.5658 10.6225L12.8755 12.5253C12.5967 11.6915 12.4779 11.0315 12.469 10.1516L18.4687 10.0915ZM18.5641 10.6175C18.5813 10.6685 18.6226 10.7749 18.6935 10.9264C18.7615 11.0719 18.8404 11.2245 18.9184 11.3621C19 11.506 19.0597 11.5968 19.085 11.6321C19.0983 11.6507 19.0802 11.6231 19.0319 11.5689C19.0066 11.5406 18.9593 11.4894 18.8912 11.4265C18.8285 11.3685 18.7087 11.2639 18.5368 11.153L15.2855 16.1957C14.6795 15.805 14.295 15.2486 14.206 15.1242C14.0221 14.8674 13.849 14.586 13.699 14.3214C13.4097 13.8112 13.0854 13.1492 12.8772 12.5303L18.5641 10.6175ZM18.5436 11.1574C17.6196 10.5581 16.5119 10.6773 15.767 11.18C15.0908 11.6364 14.7995 12.3093 14.7534 12.8667L20.7329 13.3622C20.6456 14.4151 20.1163 15.4833 19.1233 16.1534C18.0617 16.8699 16.5584 17.0214 15.2787 16.1913L18.5436 11.1574ZM14.7528 12.8733C14.7456 12.9633 14.74 13.1159 14.763 13.306C14.7866 13.5012 14.8326 13.674 14.8849 13.8161C14.933 13.9468 14.9788 14.0306 14.9902 14.051C15.0007 14.07 14.9953 14.0582 14.9545 13.9965L19.9625 10.6919C20.105 10.9079 20.3462 11.2832 20.5158 11.7443C20.7304 12.3274 20.7725 12.8707 20.7334 13.3556L14.7528 12.8733ZM14.9461 13.9836C14.0193 12.5633 13.2486 10.68 13.8011 8.65866L19.5888 10.2406C19.6411 10.0493 19.6025 9.94813 19.6203 10.0157C19.6431 10.1022 19.7249 10.3278 19.9709 10.7048L14.9461 13.9836ZM13.8015 8.65737C14.0909 7.60029 14.5121 6.92494 15.2279 5.86273L20.2036 9.21562C19.8549 9.73306 19.7165 9.95886 19.6474 10.0882C19.6218 10.1362 19.6156 10.1531 19.6153 10.1539C19.6144 10.1563 19.6064 10.1762 19.5884 10.2419L13.8015 8.65737ZM15.2271 5.86385C15.3541 5.67522 15.4891 5.47011 15.602 5.29514C15.6584 5.20772 15.7066 5.13198 15.7439 5.07242C15.7859 5.00531 15.7993 4.98216 15.7949 4.98973L20.994 7.98473C20.8393 8.25323 20.4777 8.80842 20.2044 9.21449L15.2271 5.86385ZM15.7966 4.98682C16.0615 4.52812 16.074 4.27197 16.054 4.09224C16.0277 3.85598 15.8963 3.39398 15.3391 2.62561L20.1964 -0.896763C21.1279 0.387852 21.8381 1.82274 22.0171 3.42738C22.2023 5.08856 21.7837 6.61731 20.9923 7.98764L15.7966 4.98682ZM15.3332 2.61747C15.2704 2.53025 15.4347 2.79831 15.8414 3.04447C16.0791 3.18835 16.4102 3.33177 16.8217 3.38739C17.238 3.44366 17.6153 3.39362 17.9201 3.30135L16.1814 -2.44121C17.1516 -2.73496 18.1397 -2.5779 18.9483 -2.08846C19.5863 -1.70233 19.9914 -1.18146 20.2023 -0.888626L15.3332 2.61747Z" fill="#423706" mask="url(#path-5-inside-3_329_5393)"/>
<path d="M9.33527 36.7195L9.86673 36.8217L15.4933 36.8316L15.4942 36.8316L21.1174 36.8382L21.4954 36.765C21.4963 36.7648 21.4971 36.7647 21.498 36.7645C23.4456 36.3797 24.6219 35.9497 25.4672 35.4229L25.4685 35.4221C26.213 34.9593 26.6453 34.5592 27.7137 33.1376C27.9736 32.7878 28.2771 32.3851 28.511 32.0796L27.2124 32.0743L24.6727 32.0642L22.0248 32.0535L23.3952 29.7878L23.5401 29.5484C24.0598 28.6738 24.6548 27.4076 24.9756 26.4935C24.9792 26.4831 24.9829 26.4725 24.9866 26.4618C25.0399 26.3076 25.1032 26.1248 25.1603 26.0009L25.1606 26.0002C25.1764 25.9659 25.2305 25.8484 25.3238 25.7203C25.3698 25.6572 25.4752 25.521 25.6484 25.3926C25.7882 25.2891 26.0351 25.1461 26.3663 25.1066C26.2547 24.6279 26.1895 24.1361 26.1662 23.6529L26.1662 23.6518C26.1174 22.6264 26.2177 21.6056 26.4617 20.6315L26.4874 16.6959L26.4956 15.4403L26.4993 14.8797L15.6059 14.8734C15.6058 14.8734 15.6057 14.8734 15.6056 14.8734C10.9144 14.8717 7.97661 14.8725 6.20086 14.878C5.51683 14.8802 5.00866 14.883 4.64066 14.8865V15.1786C4.64066 19.0271 5.04091 22.4716 5.7499 25.0452C6.17646 26.5903 6.79398 28.1315 7.47806 29.3712L7.4784 29.3718L7.73839 29.8435L8.96431 32.0676H6.42473H4.04378C3.46331 32.0676 3.02524 32.068 2.69136 32.0701C2.89562 32.3463 3.1625 32.715 3.38329 33.0276C3.68923 33.4606 4.06881 33.9745 4.22068 34.1628L4.22069 34.1628L4.22436 34.1674C4.78798 34.8719 5.35448 35.351 6.08758 35.7285C6.84888 36.1205 7.85109 36.4347 9.33462 36.7193L9.33527 36.7195Z" stroke="#423706" stroke-width="3"/>
</svg>
