<svg width="19" height="20" viewBox="0 0 19 20" fill="none" xmlns="http://www.w3.org/2000/svg">
<g clip-path="url(#clip0_329_5416)">
<path d="M9.0912 0.882446C5.66196 0.882446 2.88281 3.66163 2.88281 7.09084C2.88281 10.5907 4.6175 11.3363 6.53481 13.6644C8.82811 16.4492 9.0912 19.3251 9.0912 19.3251C9.0912 19.3251 9.3543 16.4492 11.6476 13.6645C13.5649 11.3363 15.2996 10.5907 15.2996 7.09087C15.2996 3.66163 12.5205 0.882446 9.0912 0.882446ZM9.0912 9.23641C7.90623 9.23641 6.94567 8.27581 6.94567 7.09087C6.94567 5.90594 7.90627 4.94533 9.0912 4.94533C10.2761 4.94533 11.2367 5.90594 11.2367 7.09087C11.2367 8.27581 10.2761 9.23641 9.0912 9.23641Z" fill="#F9F3EC"/>
</g>
<defs>
<clipPath id="clip0_329_5416">
<rect width="18.4426" height="18.4426" fill="white" transform="translate(0.277344 0.983643)"/>
</clipPath>
</defs>
</svg>
