<svg width="19" height="20" viewBox="0 0 19 20" fill="none" xmlns="http://www.w3.org/2000/svg">
<g clip-path="url(#clip0_329_5350)">
<path d="M9.09121 0.882324C5.66196 0.882324 2.88281 3.6615 2.88281 7.09072C2.88281 10.5906 4.6175 11.3362 6.53481 13.6643C8.82811 16.4491 9.09121 19.3249 9.09121 19.3249C9.09121 19.3249 9.3543 16.4491 11.6476 13.6644C13.5649 11.3362 15.2996 10.5906 15.2996 7.09075C15.2996 3.6615 12.5205 0.882324 9.09121 0.882324ZM9.09121 9.23629C7.90623 9.23629 6.94567 8.27569 6.94567 7.09075C6.94567 5.90581 7.90627 4.94521 9.09121 4.94521C10.2761 4.94521 11.2367 5.90581 11.2367 7.09075C11.2367 8.27569 10.2761 9.23629 9.09121 9.23629Z" fill="#423706"/>
</g>
<defs>
<clipPath id="clip0_329_5350">
<rect width="18.4426" height="18.4426" fill="white" transform="translate(0.277344 0.983643)"/>
</clipPath>
</defs>
</svg>
