<svg width="75" height="75" viewBox="0 0 75 75" fill="none" xmlns="http://www.w3.org/2000/svg">
<circle cx="37.5" cy="37.5" r="37" stroke="#F9F3EC"/>
<path d="M22.8489 42.803V40.251H20.6269V39.107H22.8489V37.941H21.0229V36.874H22.8489V35.752H20.8139V34.674H21.9359C21.8405 34.4393 21.7195 34.1827 21.5729 33.904C21.4335 33.6253 21.2869 33.3723 21.1329 33.145L22.2219 32.694C22.3685 32.8993 22.5262 33.1597 22.6949 33.475C22.8635 33.7903 23.0029 34.091 23.1129 34.377C23.0102 34.4137 22.8855 34.4577 22.7389 34.509C22.5995 34.5603 22.4602 34.6153 22.3209 34.674H23.6629C23.8095 34.4027 23.9635 34.08 24.1249 33.706C24.2935 33.332 24.4292 32.991 24.5319 32.683L25.7419 33.068C25.6392 33.3247 25.5182 33.596 25.3789 33.882C25.2395 34.168 25.1002 34.432 24.9609 34.674H26.2919V35.752H24.1469V36.874H25.9729V37.941H24.1469V39.107H26.5339V40.251H24.1469V42.803H22.8489ZM17.0079 42.528V39.371H20.2529V42.528H17.0079ZM16.5459 35.708V34.696H20.6049V35.708H16.5459ZM17.0849 34.168V33.123H20.1209V34.168H17.0849ZM17.0739 38.81V37.787H20.1209V38.81H17.0739ZM17.0739 37.259V36.247H20.1209V37.259H17.0739ZM18.1189 41.527H19.1419V40.372H18.1189V41.527ZM31.9239 42.803V38.348C31.6305 38.3773 31.3482 38.4103 31.0769 38.447C30.8129 38.4763 30.5782 38.4983 30.3729 38.513L30.2189 37.38C30.3069 37.38 30.4059 37.38 30.5159 37.38C30.6332 37.3727 30.7505 37.3653 30.8679 37.358C31.1319 37.0867 31.4325 36.7237 31.7699 36.269C31.5279 36.0783 31.2602 35.8803 30.9669 35.675C30.6735 35.4623 30.3912 35.2753 30.1199 35.114L30.7359 34.19C30.8019 34.2267 30.8679 34.267 30.9339 34.311C31.0072 34.355 31.0805 34.4027 31.1539 34.454C31.2565 34.2853 31.3629 34.0983 31.4729 33.893C31.5902 33.6803 31.6965 33.475 31.7919 33.277C31.8945 33.0717 31.9715 32.903 32.0229 32.771L33.0569 33.189C32.8955 33.4823 32.7159 33.794 32.5179 34.124C32.3199 34.454 32.1329 34.7473 31.9569 35.004C32.0449 35.0627 32.1255 35.1213 32.1989 35.18C32.2795 35.2387 32.3529 35.2937 32.4189 35.345C32.6315 35.0443 32.8222 34.7547 32.9909 34.476C33.1669 34.1973 33.3025 33.9663 33.3979 33.783L34.3879 34.311C34.2339 34.575 34.0359 34.883 33.7939 35.235C33.5592 35.5797 33.3099 35.9317 33.0459 36.291C32.7819 36.643 32.5252 36.9693 32.2759 37.27C32.4739 37.2553 32.6682 37.2407 32.8589 37.226C33.0569 37.2113 33.2402 37.1967 33.4089 37.182C33.3575 37.0647 33.3025 36.9547 33.2439 36.852C33.1925 36.7493 33.1375 36.6577 33.0789 36.577L33.9919 36.126C34.1165 36.3093 34.2449 36.522 34.3769 36.764C34.5089 37.006 34.6299 37.2443 34.7399 37.479V33.376H39.9979V42.396H34.7399V40.845C34.5859 40.889 34.4245 40.9477 34.2559 41.021C34.0945 41.087 33.9515 41.1567 33.8269 41.23C33.7682 41.0687 33.6949 40.8487 33.6069 40.57C33.5262 40.2913 33.4455 40.0053 33.3649 39.712C33.2842 39.4113 33.2219 39.1583 33.1779 38.953L34.1569 38.7C34.1935 38.854 34.2449 39.041 34.3109 39.261C34.3769 39.481 34.4465 39.7083 34.5199 39.943C34.6005 40.1703 34.6739 40.3757 34.7399 40.559V38.238C34.6225 38.2893 34.4979 38.3517 34.3659 38.425C34.2339 38.491 34.1202 38.5533 34.0249 38.612C34.0029 38.5313 33.9735 38.447 33.9369 38.359C33.9002 38.2637 33.8635 38.1683 33.8269 38.073C33.7169 38.0877 33.5995 38.106 33.4749 38.128C33.3575 38.1427 33.2329 38.161 33.1009 38.183V42.803H31.9239ZM31.0549 41.725C30.9155 41.6663 30.7432 41.604 30.5379 41.538C30.3399 41.472 30.1675 41.4317 30.0209 41.417C30.1309 41.219 30.2409 40.9697 30.3509 40.669C30.4609 40.3683 30.5599 40.0567 30.6479 39.734C30.7359 39.4113 30.7982 39.118 30.8349 38.854L31.8359 39.063C31.7992 39.327 31.7369 39.6277 31.6489 39.965C31.5682 40.3023 31.4765 40.6287 31.3739 40.944C31.2712 41.252 31.1649 41.5123 31.0549 41.725ZM37.9079 41.23H38.8209V38.304H37.9079V41.23ZM35.9279 41.23H36.8079V38.304H35.9279V41.23ZM37.9079 37.16H38.8209V34.531H37.9079V37.16ZM35.9279 37.16H36.8079V34.531H35.9279V37.16Z" fill="#F9F3EC"/>
<path d="M64.7071 38.7071C65.0976 38.3166 65.0976 37.6834 64.7071 37.2929L58.3431 30.9289C57.9526 30.5384 57.3195 30.5384 56.9289 30.9289C56.5384 31.3195 56.5384 31.9526 56.9289 32.3431L62.5858 38L56.9289 43.6569C56.5384 44.0474 56.5384 44.6805 56.9289 45.0711C57.3195 45.4616 57.9526 45.4616 58.3431 45.0711L64.7071 38.7071ZM48 39L64 39V37L48 37V39Z" fill="white"/>
</svg>
