<svg width="75" height="75" viewBox="0 0 75 75" fill="none" xmlns="http://www.w3.org/2000/svg">
<circle cx="37.5" cy="37.5" r="37" stroke="#F9F3EC"/>
<g clip-path="url(#clip0_329_5336)">
<path d="M37.0912 15.8828C33.662 15.8828 30.8828 18.662 30.8828 22.0912C30.8828 25.5911 32.6175 26.3367 34.5348 28.6648C36.8281 31.4496 37.0912 34.3254 37.0912 34.3254C37.0912 34.3254 37.3543 31.4496 39.6476 28.6648C41.5649 26.3367 43.2996 25.5911 43.2996 22.0912C43.2996 18.662 40.5205 15.8828 37.0912 15.8828ZM37.0912 24.2368C35.9062 24.2368 34.9457 23.2762 34.9457 22.0912C34.9457 20.9063 35.9063 19.9457 37.0912 19.9457C38.2761 19.9457 39.2367 20.9063 39.2367 22.0912C39.2367 23.2762 38.2761 24.2368 37.0912 24.2368Z" fill="#F9F3EC"/>
</g>
<path d="M24.8126 54.9719C24.6293 54.7152 24.4093 54.4439 24.1526 54.1579C23.896 53.8646 23.621 53.5786 23.3276 53.2999C23.0343 53.0212 22.7373 52.7646 22.4366 52.5299C22.136 52.2952 21.8536 52.0972 21.5896 51.9359L22.5246 51.0449C22.7373 51.1769 22.961 51.3272 23.1956 51.4959C23.4303 51.6572 23.6613 51.8296 23.8886 52.0129C24.1086 51.8222 24.347 51.6059 24.6036 51.3639C24.8676 51.1219 25.128 50.8726 25.3846 50.6159C25.6413 50.3592 25.8796 50.1136 26.0996 49.8789C25.6816 49.8936 25.2123 49.9119 24.6916 49.9339C24.1783 49.9486 23.6503 49.9669 23.1076 49.9889C22.5723 50.0036 22.059 50.0219 21.5676 50.0439C21.0836 50.0659 20.6546 50.0879 20.2806 50.1099C19.914 50.1246 19.6463 50.1392 19.4776 50.1539L19.3786 48.7679C19.628 48.7826 19.9653 48.7899 20.3906 48.7899C20.8233 48.7899 21.3036 48.7899 21.8316 48.7899C22.367 48.7826 22.9133 48.7716 23.4706 48.7569C24.0353 48.7422 24.5743 48.7276 25.0876 48.7129C25.6083 48.6982 26.0703 48.6799 26.4736 48.6579C26.8843 48.6359 27.196 48.6139 27.4086 48.5919L28.2116 49.3289C28.0356 49.5709 27.8156 49.8422 27.5516 50.1429C27.295 50.4436 27.0126 50.7552 26.7046 51.0779C26.404 51.4006 26.0923 51.7159 25.7696 52.0239C25.4543 52.3319 25.1536 52.6106 24.8676 52.8599C25.0656 53.0506 25.2526 53.2412 25.4286 53.4319C25.612 53.6226 25.7733 53.8096 25.9126 53.9929C25.8173 54.0589 25.7 54.1506 25.5606 54.2679C25.4213 54.3852 25.282 54.5062 25.1426 54.6309C25.0106 54.7556 24.9006 54.8692 24.8126 54.9719ZM35.5816 55.7309C35.523 55.5769 35.435 55.4009 35.3176 55.2029C35.2003 54.9976 35.0866 54.8399 34.9766 54.7299C36.2453 54.4292 37.2683 53.8939 38.0456 53.1239C38.8303 52.3539 39.3143 51.3089 39.4976 49.9889L40.5646 50.1649C40.4033 51.2282 40.0953 52.1229 39.6406 52.8489C39.1933 53.5749 38.625 54.1689 37.9356 54.6309C37.2536 55.0856 36.469 55.4522 35.5816 55.7309ZM34.8996 52.3539C34.8776 52.2072 34.83 52.0202 34.7566 51.7929C34.6833 51.5656 34.599 51.3419 34.5036 51.1219C34.4156 50.9019 34.335 50.7332 34.2616 50.6159L35.2626 50.2529C35.336 50.3776 35.4166 50.5536 35.5046 50.7809C35.5926 51.0082 35.6733 51.2392 35.7466 51.4739C35.8273 51.7012 35.886 51.8956 35.9226 52.0569L34.8996 52.3539ZM36.7806 51.9359C36.766 51.7892 36.7256 51.6022 36.6596 51.3749C36.5936 51.1402 36.5203 50.9129 36.4396 50.6929C36.359 50.4656 36.282 50.2932 36.2086 50.1759L37.2096 49.8459C37.2756 49.9779 37.349 50.1576 37.4296 50.3849C37.5176 50.6122 37.5946 50.8432 37.6606 51.0779C37.734 51.3052 37.7853 51.4996 37.8146 51.6609L36.7806 51.9359ZM48.6386 55.5989C48.5946 55.5036 48.5213 55.3789 48.4186 55.2249C48.3233 55.0709 48.217 54.9169 48.0996 54.7629C47.9896 54.6089 47.8833 54.4879 47.7806 54.3999C49.1813 53.9452 50.3363 53.3146 51.2456 52.5079C52.155 51.6939 52.8113 50.6599 53.2146 49.4059C52.87 49.4132 52.4776 49.4242 52.0376 49.4389C51.605 49.4536 51.1576 49.4682 50.6956 49.4829C50.2336 49.4976 49.79 49.5122 49.3646 49.5269C48.9466 49.5416 48.58 49.5562 48.2646 49.5709C47.9493 49.5782 47.7183 49.5856 47.5716 49.5929L47.4836 48.1189C47.6963 48.1336 47.975 48.1446 48.3196 48.1519C48.6716 48.1592 49.0566 48.1629 49.4746 48.1629C49.8926 48.1629 50.3253 48.1629 50.7726 48.1629C51.22 48.1556 51.649 48.1482 52.0596 48.1409C52.4776 48.1262 52.8553 48.1116 53.1926 48.0969C53.53 48.0822 53.7976 48.0639 53.9956 48.0419L54.8866 48.5149C54.6446 49.6882 54.234 50.7406 53.6546 51.6719C53.0826 52.5959 52.3713 53.3916 51.5206 54.0589C50.6773 54.7189 49.7166 55.2322 48.6386 55.5989ZM55.6456 48.4819C55.345 48.4819 55.0846 48.3756 54.8646 48.1629C54.652 47.9429 54.5456 47.6826 54.5456 47.3819C54.5456 47.0812 54.652 46.8246 54.8646 46.6119C55.0846 46.3992 55.345 46.2929 55.6456 46.2929C55.9463 46.2929 56.203 46.3992 56.4156 46.6119C56.6283 46.8246 56.7346 47.0812 56.7346 47.3819C56.7346 47.6826 56.6283 47.9429 56.4156 48.1629C56.203 48.3756 55.9463 48.4819 55.6456 48.4819ZM55.6456 48.0089C55.8143 48.0089 55.9573 47.9502 56.0746 47.8329C56.1993 47.7082 56.2616 47.5579 56.2616 47.3819C56.2616 47.2132 56.1993 47.0702 56.0746 46.9529C55.9573 46.8282 55.8143 46.7659 55.6456 46.7659C55.4696 46.7659 55.3193 46.8282 55.1946 46.9529C55.0773 47.0702 55.0186 47.2132 55.0186 47.3819C55.0186 47.5579 55.0773 47.7082 55.1946 47.8329C55.3193 47.9502 55.4696 48.0089 55.6456 48.0089Z" fill="#F9F3EC"/>
<defs>
<clipPath id="clip0_329_5336">
<rect width="18.4426" height="18.4426" fill="white" transform="translate(28.2773 15.9839)"/>
</clipPath>
</defs>
</svg>
